<svg xmlns="http://www.w3.org/2000/svg" xmlns:xlink="http://www.w3.org/1999/xlink" width="500" zoomAndPan="magnify" viewBox="0 0 375 374.999991" height="500" preserveAspectRatio="xMidYMid meet" version="1.0"><defs><g/><clipPath id="67cfe4e664"><path d="M 47.128906 149.097656 L 119.128906 149.097656 L 119.128906 186 L 47.128906 186 Z M 47.128906 149.097656 " clip-rule="nonzero"/></clipPath><clipPath id="95b716ff21"><path d="M 47.128906 183 L 119.128906 183 L 119.128906 206 L 47.128906 206 Z M 47.128906 183 " clip-rule="nonzero"/></clipPath><clipPath id="fd50f6267a"><path d="M 47.128906 203 L 119.128906 203 L 119.128906 225.597656 L 47.128906 225.597656 Z M 47.128906 203 " clip-rule="nonzero"/></clipPath></defs><g clip-path="url(#67cfe4e664)"><path fill="#7f76ce" d="M 47.898438 168.671875 L 82.429688 185.296875 C 82.859375 185.5 83.285156 185.5 83.714844 185.296875 L 118.246094 168.671875 C 118.496094 168.546875 118.695312 168.367188 118.84375 168.128906 C 118.992188 167.890625 119.066406 167.628906 119.066406 167.347656 C 119.066406 167.066406 118.992188 166.808594 118.84375 166.570312 C 118.695312 166.332031 118.496094 166.148438 118.246094 166.023438 L 83.714844 149.402344 C 83.285156 149.199219 82.859375 149.199219 82.429688 149.402344 L 47.898438 166.023438 C 47.648438 166.148438 47.445312 166.332031 47.296875 166.570312 C 47.148438 166.808594 47.074219 167.066406 47.074219 167.347656 C 47.074219 167.628906 47.148438 167.890625 47.296875 168.128906 C 47.445312 168.367188 47.648438 168.546875 47.898438 168.671875 Z M 47.898438 168.671875 " fill-opacity="1" fill-rule="nonzero"/></g><g clip-path="url(#95b716ff21)"><path fill="#bab3ff" d="M 47.898438 188.859375 L 82.429688 205.449219 C 82.859375 205.65625 83.285156 205.65625 83.714844 205.449219 L 118.246094 188.859375 C 118.496094 188.738281 118.699219 188.558594 118.847656 188.320312 C 118.996094 188.082031 119.070312 187.824219 119.070312 187.542969 C 119.070312 187.261719 118.996094 187.003906 118.847656 186.765625 C 118.699219 186.527344 118.496094 186.347656 118.246094 186.226562 L 112.757812 183.5625 C 112.191406 183.28125 111.59375 183.140625 110.960938 183.140625 C 110.328125 183.140625 109.730469 183.28125 109.164062 183.5625 L 87.886719 193.832031 C 86.382812 194.550781 84.800781 194.910156 83.136719 194.910156 C 81.472656 194.910156 79.886719 194.550781 78.386719 193.832031 L 56.996094 183.546875 C 56.425781 183.273438 55.824219 183.136719 55.191406 183.136719 C 54.558594 183.136719 53.957031 183.273438 53.386719 183.546875 L 47.898438 186.195312 C 47.644531 186.316406 47.445312 186.496094 47.296875 186.734375 C 47.148438 186.972656 47.070312 187.230469 47.070312 187.511719 C 47.070312 187.792969 47.148438 188.050781 47.296875 188.289062 C 47.445312 188.527344 47.644531 188.703125 47.898438 188.828125 Z M 47.898438 188.859375 " fill-opacity="1" fill-rule="nonzero"/></g><g clip-path="url(#fd50f6267a)"><path fill="#bab3ff" d="M 118.246094 206.363281 L 112.757812 203.71875 C 112.1875 203.445312 111.589844 203.308594 110.960938 203.308594 C 110.328125 203.308594 109.730469 203.445312 109.164062 203.71875 L 87.886719 213.988281 C 87.144531 214.347656 86.375 214.617188 85.574219 214.800781 C 84.769531 214.988281 83.957031 215.078125 83.136719 215.078125 C 82.3125 215.078125 81.5 214.988281 80.699219 214.800781 C 79.898438 214.617188 79.125 214.347656 78.386719 213.988281 L 57.0625 203.71875 C 56.492188 203.445312 55.890625 203.308594 55.257812 203.308594 C 54.625 203.308594 54.023438 203.445312 53.449219 203.71875 L 47.964844 206.363281 C 47.710938 206.488281 47.507812 206.667969 47.359375 206.902344 C 47.210938 207.140625 47.136719 207.398438 47.136719 207.679688 C 47.136719 207.960938 47.210938 208.21875 47.359375 208.457031 C 47.507812 208.695312 47.710938 208.875 47.964844 208.996094 L 82.429688 225.621094 C 82.859375 225.824219 83.285156 225.824219 83.714844 225.621094 L 118.246094 208.996094 C 118.496094 208.875 118.699219 208.695312 118.847656 208.457031 C 118.996094 208.21875 119.070312 207.960938 119.070312 207.679688 C 119.070312 207.398438 118.996094 207.140625 118.847656 206.902344 C 118.699219 206.667969 118.496094 206.488281 118.246094 206.363281 Z M 118.246094 206.363281 " fill-opacity="1" fill-rule="nonzero"/></g><g fill="#bab3ff" fill-opacity="1"><g transform="translate(141.110261, 203.624987)"><g><path d="M 32.546875 -31.421875 L 32.546875 0 L 26.578125 0 L 10.90625 -19.078125 L 10.90625 0 L 3.71875 0 L 3.71875 -31.421875 L 9.734375 -31.421875 L 25.359375 -12.34375 L 25.359375 -31.421875 Z M 32.546875 -31.421875 "/></g></g></g><g fill="#bab3ff" fill-opacity="1"><g transform="translate(178.732038, 203.624987)"><g><path d="M 18.9375 0.53125 C 15.675781 0.53125 12.734375 -0.171875 10.109375 -1.578125 C 7.492188 -2.984375 5.445312 -4.921875 3.96875 -7.390625 C 2.488281 -9.859375 1.75 -12.632812 1.75 -15.71875 C 1.75 -18.789062 2.488281 -21.5625 3.96875 -24.03125 C 5.445312 -26.507812 7.492188 -28.453125 10.109375 -29.859375 C 12.734375 -31.265625 15.675781 -31.96875 18.9375 -31.96875 C 22.207031 -31.96875 25.140625 -31.265625 27.734375 -29.859375 C 30.335938 -28.453125 32.390625 -26.507812 33.890625 -24.03125 C 35.390625 -21.5625 36.140625 -18.789062 36.140625 -15.71875 C 36.140625 -12.632812 35.390625 -9.859375 33.890625 -7.390625 C 32.390625 -4.921875 30.335938 -2.984375 27.734375 -1.578125 C 25.140625 -0.171875 22.207031 0.53125 18.9375 0.53125 Z M 18.9375 -5.65625 C 20.800781 -5.65625 22.476562 -6.082031 23.96875 -6.9375 C 25.46875 -7.789062 26.644531 -8.976562 27.5 -10.5 C 28.351562 -12.03125 28.78125 -13.769531 28.78125 -15.71875 C 28.78125 -17.65625 28.351562 -19.382812 27.5 -20.90625 C 26.644531 -22.4375 25.46875 -23.628906 23.96875 -24.484375 C 22.476562 -25.335938 20.800781 -25.765625 18.9375 -25.765625 C 17.082031 -25.765625 15.40625 -25.335938 13.90625 -24.484375 C 12.414062 -23.628906 11.242188 -22.4375 10.390625 -20.90625 C 9.535156 -19.382812 9.109375 -17.65625 9.109375 -15.71875 C 9.109375 -13.769531 9.535156 -12.03125 10.390625 -10.5 C 11.242188 -8.976562 12.414062 -7.789062 13.90625 -6.9375 C 15.40625 -6.082031 17.082031 -5.65625 18.9375 -5.65625 Z M 18.9375 -5.65625 "/></g></g></g><g fill="#bab3ff" fill-opacity="1"><g transform="translate(217.970007, 203.624987)"><g><path d="M 10.234375 -25.5 L 0.171875 -25.5 L 0.171875 -31.421875 L 27.5625 -31.421875 L 27.5625 -25.5 L 17.5 -25.5 L 17.5 0 L 10.234375 0 Z M 10.234375 -25.5 "/></g></g></g><g fill="#bab3ff" fill-opacity="1"><g transform="translate(247.061831, 203.624987)"><g><path d="M 28.0625 -5.828125 L 28.0625 0 L 3.71875 0 L 3.71875 -31.421875 L 27.46875 -31.421875 L 27.46875 -25.59375 L 10.953125 -25.59375 L 10.953125 -18.765625 L 25.546875 -18.765625 L 25.546875 -13.109375 L 10.953125 -13.109375 L 10.953125 -5.828125 Z M 28.0625 -5.828125 "/></g></g></g><g fill="#bab3ff" fill-opacity="1"><g transform="translate(278.533058, 203.624987)"><g><path d="M 3.71875 -31.421875 L 18 -31.421875 C 21.414062 -31.421875 24.429688 -30.769531 27.046875 -29.46875 C 29.660156 -28.164062 31.691406 -26.332031 33.140625 -23.96875 C 34.597656 -21.601562 35.328125 -18.851562 35.328125 -15.71875 C 35.328125 -12.570312 34.597656 -9.816406 33.140625 -7.453125 C 31.691406 -5.085938 29.660156 -3.253906 27.046875 -1.953125 C 24.429688 -0.648438 21.414062 0 18 0 L 3.71875 0 Z M 17.640625 -5.96875 C 20.785156 -5.96875 23.289062 -6.84375 25.15625 -8.59375 C 27.03125 -10.34375 27.96875 -12.71875 27.96875 -15.71875 C 27.96875 -18.707031 27.03125 -21.078125 25.15625 -22.828125 C 23.289062 -24.578125 20.785156 -25.453125 17.640625 -25.453125 L 11 -25.453125 L 11 -5.96875 Z M 17.640625 -5.96875 "/></g></g></g></svg>