<svg xmlns="http://www.w3.org/2000/svg" xmlns:xlink="http://www.w3.org/1999/xlink" width="1080" zoomAndPan="magnify" viewBox="0 0 810 809.999993" height="1080" preserveAspectRatio="xMidYMid meet" version="1.0"><defs><filter x="0%" y="0%" width="100%" height="100%" id="f24b099c9b"><feColorMatrix values="0 0 0 0 1 0 0 0 0 1 0 0 0 0 1 0 0 0 1 0" color-interpolation-filters="sRGB"/></filter><mask id="70e65ff5de"><g filter="url(#f24b099c9b)"><rect x="-81" width="972" fill="#000000" y="-80.999999" height="971.999992" fill-opacity="0.36"/></g></mask><clipPath id="f7c0b6059b"><path d="M 0 0 L 810 0 L 810 810 L 0 810 Z M 0 0 " clip-rule="nonzero"/></clipPath><clipPath id="17bbec532a"><rect x="0" width="810" y="0" height="810"/></clipPath></defs><g mask="url(#70e65ff5de)"><g transform="matrix(1, 0, 0, 1, 0, 0.000000000000039746)"><g clip-path="url(#17bbec532a)"><g clip-path="url(#f7c0b6059b)"><rect x="-178.2" width="1166.4" fill="#ffffff" height="1166.39999" y="-178.199998" fill-opacity="1"/></g><path fill="#84c3ca" d="M 62.816406 78.105469 C 61.632812 79.285156 60.535156 80.515625 59.539062 81.761719 L 46.769531 77.96875 L 48.195312 73.753906 L 54.945312 71.46875 C 55.46875 71.292969 55.878906 70.878906 56.054688 70.359375 L 58.34375 63.605469 L 62.570312 62.175781 L 66.417969 74.871094 C 65.1875 75.855469 63.976562 76.941406 62.816406 78.105469 Z M 73.738281 86.816406 L 70.160156 75.011719 L 64.972656 57.890625 C 64.972656 57.886719 64.972656 57.882812 64.96875 57.878906 L 64.96875 57.875 C 64.964844 57.867188 64.964844 57.867188 64.960938 57.859375 C 64.945312 57.808594 64.929688 57.757812 64.910156 57.707031 C 64.902344 57.691406 64.894531 57.675781 64.886719 57.664062 C 64.867188 57.625 64.855469 57.585938 64.835938 57.554688 C 64.820312 57.53125 64.804688 57.503906 64.789062 57.476562 C 64.773438 57.453125 64.761719 57.429688 64.746094 57.410156 C 64.726562 57.371094 64.699219 57.339844 64.675781 57.3125 C 64.664062 57.292969 64.652344 57.277344 64.644531 57.265625 C 64.609375 57.226562 64.570312 57.1875 64.535156 57.148438 C 64.53125 57.144531 64.53125 57.136719 64.527344 57.136719 L 64.523438 57.132812 C 64.519531 57.128906 64.515625 57.128906 64.511719 57.125 L 7.390625 0 L 2.378906 0 L 61.257812 58.878906 L 56.375 60.53125 C 55.855469 60.707031 55.445312 61.117188 55.265625 61.640625 L 52.980469 68.394531 L 46.230469 70.679688 C 45.707031 70.859375 45.296875 71.265625 45.121094 71.792969 L 43.464844 76.671875 L 0 33.203125 L 0 38.214844 L 41.71875 79.933594 C 41.761719 79.980469 41.808594 80.019531 41.855469 80.058594 C 41.863281 80.066406 41.875 80.074219 41.886719 80.082031 C 41.921875 80.109375 41.957031 80.136719 41.996094 80.160156 C 42.019531 80.183594 42.046875 80.195312 42.078125 80.210938 C 42.097656 80.222656 42.121094 80.234375 42.140625 80.25 C 42.1875 80.277344 42.238281 80.296875 42.285156 80.316406 C 42.289062 80.320312 42.292969 80.320312 42.300781 80.324219 C 42.359375 80.347656 42.417969 80.371094 42.476562 80.382812 L 59.691406 85.507812 L 71.539062 89.03125 C 71.703125 89.078125 71.875 89.105469 72.042969 89.105469 C 72.507812 89.105469 72.960938 88.917969 73.296875 88.578125 C 73.757812 88.121094 73.929688 87.445312 73.738281 86.816406 " fill-opacity="1" fill-rule="nonzero"/><path fill="#84c3ca" d="M 383.289062 11.492188 L 394.78125 0 L 389.769531 0 L 380.78125 8.988281 L 372.425781 0.628906 C 372.21875 0.425781 372.023438 0.214844 371.835938 0 L 367.46875 0 C 368.144531 1.125 368.96875 2.183594 369.921875 3.140625 L 379.527344 12.746094 C 379.527344 12.746094 379.527344 12.75 379.53125 12.75 L 405 38.214844 L 405 33.203125 L 383.289062 11.492188 " fill-opacity="1" fill-rule="nonzero"/><path fill="#84c3ca" d="M 0 397.609375 L 0 402.617188 L 2.378906 405 L 7.390625 405 L 0 397.609375 " fill-opacity="1" fill-rule="nonzero"/><path fill="#4f68a6" d="M 78.675781 233.117188 C 77.835938 236.371094 75.78125 239.101562 72.886719 240.8125 L 62.710938 246.824219 L 49.921875 225.15625 L 60.09375 219.144531 C 62.988281 217.4375 66.378906 216.957031 69.628906 217.796875 C 72.882812 218.636719 75.617188 220.6875 77.328125 223.582031 C 79.035156 226.480469 79.515625 229.859375 78.675781 233.117188 Z M 80.375 221.78125 C 78.1875 218.070312 74.683594 215.441406 70.511719 214.367188 C 66.34375 213.292969 62.003906 213.90625 58.292969 216.097656 L 46.59375 223 C 46.59375 223 46.59375 223 46.589844 223 C 46.589844 223.003906 46.589844 223.003906 46.589844 223.003906 L 0 250.511719 L 0 254.628906 L 46.867188 226.953125 L 59.660156 248.621094 L 0 283.84375 L 0 287.960938 L 62.988281 250.773438 L 74.6875 243.867188 C 78.398438 241.675781 81.03125 238.171875 82.105469 234 C 83.179688 229.828125 82.566406 225.492188 80.375 221.78125 " fill-opacity="1" fill-rule="nonzero"/><path fill="#e74632" d="M 190.535156 329.246094 L 188.835938 317.546875 C 188.351562 314.222656 189.195312 310.910156 191.203125 308.214844 C 193.214844 305.523438 196.152344 303.773438 199.476562 303.292969 C 202.800781 302.808594 206.117188 303.648438 208.808594 305.65625 C 211.503906 307.671875 213.25 310.605469 213.734375 313.933594 L 215.429688 325.628906 Z M 219.195312 326.871094 L 217.242188 313.421875 C 216.621094 309.160156 214.378906 305.394531 210.929688 302.816406 C 207.480469 300.242188 203.230469 299.164062 198.96875 299.785156 C 194.707031 300.402344 190.9375 302.644531 188.363281 306.09375 C 185.785156 309.546875 184.707031 313.796875 185.328125 318.058594 L 187.28125 331.503906 L 187.28125 331.507812 L 197.953125 405 L 201.535156 405 L 191.042969 332.75 L 215.941406 329.136719 L 226.960938 405 L 230.542969 405 L 219.195312 326.871094 " fill-opacity="1" fill-rule="nonzero"/><path fill="#e74632" d="M 223.757812 31.257812 C 222.183594 31.308594 220.566406 31.453125 218.941406 31.691406 C 217.28125 31.929688 215.667969 32.257812 214.125 32.664062 L 206.160156 21.984375 L 209.820312 19.460938 L 216.601562 21.667969 C 217.125 21.839844 217.699219 21.757812 218.152344 21.445312 L 224.023438 17.398438 L 228.265625 18.78125 Z M 232.851562 15.925781 C 232.851562 15.925781 232.851562 15.917969 232.851562 15.910156 L 232.851562 15.894531 L 230.542969 0 L 226.960938 0 L 229.1875 15.355469 L 224.289062 13.761719 C 223.765625 13.589844 223.191406 13.667969 222.738281 13.984375 L 216.863281 18.027344 L 210.085938 15.824219 C 209.5625 15.652344 208.988281 15.734375 208.535156 16.046875 L 204.289062 18.96875 L 201.535156 0 L 197.953125 0 L 200.933594 20.542969 C 200.945312 20.601562 200.957031 20.660156 200.972656 20.71875 C 200.976562 20.734375 200.980469 20.742188 200.984375 20.757812 C 200.996094 20.800781 201.007812 20.84375 201.023438 20.890625 C 201.035156 20.917969 201.042969 20.945312 201.058594 20.972656 C 201.066406 21 201.078125 21.023438 201.089844 21.046875 C 201.109375 21.089844 201.136719 21.140625 201.164062 21.183594 C 201.164062 21.191406 201.167969 21.191406 201.167969 21.203125 C 201.203125 21.253906 201.238281 21.308594 201.277344 21.359375 L 212.007812 35.753906 L 219.394531 45.664062 C 219.496094 45.804688 219.621094 45.921875 219.753906 46.027344 C 220.128906 46.304688 220.601562 46.429688 221.074219 46.359375 C 221.71875 46.261719 222.257812 45.820312 222.484375 45.207031 L 226.675781 33.605469 L 232.757812 16.785156 C 232.757812 16.777344 232.761719 16.777344 232.761719 16.769531 C 232.765625 16.761719 232.765625 16.757812 232.769531 16.75 C 232.789062 16.703125 232.804688 16.652344 232.816406 16.601562 C 232.820312 16.585938 232.820312 16.5625 232.824219 16.546875 C 232.832031 16.507812 232.84375 16.472656 232.851562 16.429688 C 232.851562 16.402344 232.855469 16.375 232.859375 16.34375 C 232.863281 16.316406 232.867188 16.289062 232.867188 16.261719 C 232.867188 16.21875 232.867188 16.179688 232.867188 16.140625 L 232.867188 16.085938 C 232.867188 16.027344 232.859375 15.976562 232.851562 15.925781 " fill-opacity="1" fill-rule="nonzero"/><path fill="#84c3ca" d="M 278.238281 235.855469 C 277.964844 237.503906 277.78125 239.144531 277.695312 240.734375 L 265.09375 245.058594 L 263.808594 240.804688 L 267.980469 235.023438 C 268.304688 234.574219 268.398438 234 268.242188 233.476562 L 266.183594 226.648438 L 268.792969 223.03125 L 279.296875 231.132812 C 278.867188 232.652344 278.511719 234.230469 278.238281 235.855469 Z M 260.425781 239.441406 C 260.101562 239.886719 260.007812 240.460938 260.164062 240.988281 L 261.652344 245.921875 L 170.746094 230.691406 L 174.90625 205.878906 L 265.8125 221.109375 L 262.796875 225.285156 C 262.476562 225.734375 262.378906 226.304688 262.539062 226.832031 L 264.597656 233.660156 Z M 167.25 230.105469 L 155.59375 228.152344 C 152.28125 227.597656 149.382812 225.78125 147.429688 223.050781 C 145.480469 220.3125 144.714844 216.980469 145.265625 213.664062 C 145.820312 210.347656 147.636719 207.453125 150.371094 205.5 C 153.105469 203.550781 156.4375 202.785156 159.753906 203.339844 L 171.410156 205.289062 Z M 292.195312 236.609375 L 282.425781 229.070312 L 268.261719 218.144531 C 268.257812 218.140625 268.257812 218.136719 268.253906 218.136719 L 268.25 218.136719 C 268.246094 218.132812 268.242188 218.128906 268.238281 218.125 C 268.195312 218.09375 268.152344 218.0625 268.105469 218.035156 C 268.089844 218.027344 268.074219 218.015625 268.0625 218.007812 C 268.027344 217.992188 267.992188 217.96875 267.953125 217.949219 C 267.929688 217.933594 267.902344 217.925781 267.875 217.914062 C 267.851562 217.90625 267.824219 217.894531 267.796875 217.882812 C 267.761719 217.871094 267.722656 217.855469 267.683594 217.839844 C 267.667969 217.839844 267.648438 217.832031 267.632812 217.828125 C 267.578125 217.8125 267.527344 217.800781 267.476562 217.792969 C 267.472656 217.792969 267.464844 217.789062 267.460938 217.789062 C 267.453125 217.789062 267.449219 217.789062 267.445312 217.789062 L 173.742188 202.085938 L 160.339844 199.84375 C 156.089844 199.128906 151.820312 200.113281 148.3125 202.613281 C 144.804688 205.117188 142.484375 208.835938 141.773438 213.078125 C 141.058594 217.328125 142.046875 221.601562 144.542969 225.101562 C 147.046875 228.613281 150.761719 230.933594 155.007812 231.648438 L 168.410156 233.890625 C 168.414062 233.890625 168.414062 233.890625 168.414062 233.890625 L 262.125 249.59375 C 262.1875 249.605469 262.246094 249.609375 262.308594 249.617188 L 262.347656 249.617188 C 262.390625 249.621094 262.4375 249.621094 262.484375 249.621094 C 262.515625 249.617188 262.546875 249.613281 262.578125 249.609375 C 262.601562 249.605469 262.628906 249.605469 262.65625 249.605469 C 262.707031 249.597656 262.757812 249.589844 262.808594 249.578125 C 262.8125 249.578125 262.820312 249.578125 262.824219 249.574219 C 262.886719 249.5625 262.949219 249.539062 263.007812 249.519531 L 279.996094 243.695312 L 291.6875 239.6875 C 291.847656 239.628906 292 239.554688 292.140625 239.457031 C 292.519531 239.183594 292.78125 238.769531 292.859375 238.300781 C 292.964844 237.65625 292.710938 237.011719 292.195312 236.609375 " fill-opacity="1" fill-rule="nonzero"/><path fill="#ffb923" d="M 343.503906 97.601562 L 339.539062 95.597656 L 338.230469 88.589844 C 338.125 88.046875 337.777344 87.582031 337.285156 87.335938 L 330.921875 84.117188 L 330.101562 79.734375 L 343.210938 77.710938 C 344.011719 79.070312 344.917969 80.417969 345.90625 81.734375 C 346.90625 83.070312 347.96875 84.328125 349.066406 85.492188 Z M 268.046875 156.027344 L 252.941406 135.910156 L 326.652344 80.566406 L 327.601562 85.628906 C 327.703125 86.171875 328.050781 86.632812 328.542969 86.886719 L 334.902344 90.105469 L 336.21875 97.105469 C 336.320312 97.648438 336.667969 98.109375 337.160156 98.363281 L 341.757812 100.6875 Z M 255.761719 165.253906 C 253.074219 167.269531 249.761719 168.121094 246.4375 167.648438 C 243.109375 167.175781 240.164062 165.433594 238.148438 162.746094 C 236.128906 160.058594 235.28125 156.746094 235.753906 153.417969 C 236.226562 150.09375 237.96875 147.148438 240.652344 145.132812 L 250.105469 138.035156 L 265.214844 158.15625 Z M 357.753906 72.828125 C 357.363281 72.308594 356.714844 72.046875 356.070312 72.148438 L 343.875 74.027344 L 326.195312 76.746094 C 326.191406 76.746094 326.191406 76.753906 326.183594 76.753906 L 326.179688 76.753906 C 326.171875 76.753906 326.171875 76.753906 326.164062 76.753906 C 326.113281 76.761719 326.0625 76.769531 326.007812 76.785156 C 325.988281 76.792969 325.976562 76.796875 325.960938 76.800781 C 325.917969 76.8125 325.882812 76.820312 325.84375 76.835938 C 325.816406 76.847656 325.789062 76.863281 325.765625 76.871094 C 325.738281 76.878906 325.710938 76.890625 325.683594 76.902344 C 325.648438 76.921875 325.613281 76.941406 325.578125 76.957031 C 325.566406 76.96875 325.546875 76.976562 325.53125 76.988281 C 325.484375 77.015625 325.441406 77.042969 325.402344 77.074219 C 325.394531 77.074219 325.390625 77.078125 325.386719 77.082031 L 325.386719 77.085938 C 325.382812 77.09375 325.375 77.09375 325.375 77.09375 L 249.394531 134.136719 C 249.394531 134.140625 249.394531 134.140625 249.394531 134.140625 L 238.527344 142.296875 C 235.082031 144.882812 232.851562 148.65625 232.246094 152.917969 C 231.636719 157.183594 232.726562 161.429688 235.316406 164.871094 C 237.898438 168.320312 241.671875 170.550781 245.933594 171.15625 C 250.199219 171.765625 254.445312 170.671875 257.886719 168.085938 L 268.757812 159.925781 L 344.746094 102.875 C 344.792969 102.839844 344.839844 102.800781 344.886719 102.757812 C 344.894531 102.753906 344.902344 102.742188 344.914062 102.730469 C 344.945312 102.699219 344.980469 102.671875 345.007812 102.636719 C 345.027344 102.609375 345.046875 102.585938 345.066406 102.5625 C 345.085938 102.542969 345.101562 102.523438 345.117188 102.5 C 345.148438 102.457031 345.175781 102.414062 345.203125 102.371094 C 345.207031 102.363281 345.207031 102.363281 345.214844 102.355469 C 345.242188 102.300781 345.273438 102.242188 345.300781 102.183594 L 352.792969 85.867188 L 357.953125 74.632812 C 358.023438 74.480469 358.070312 74.3125 358.09375 74.148438 C 358.160156 73.691406 358.042969 73.210938 357.753906 72.828125 " fill-opacity="1" fill-rule="nonzero"/><path fill="#e74632" d="M 160.316406 124.980469 C 159.605469 128.261719 157.65625 131.074219 154.832031 132.890625 L 144.894531 139.292969 L 131.273438 118.136719 L 141.210938 111.738281 C 144.03125 109.921875 147.398438 109.308594 150.683594 110.019531 C 153.96875 110.730469 156.777344 112.679688 158.597656 115.503906 C 160.417969 118.332031 161.027344 121.695312 160.316406 124.980469 Z M 64.414062 191.109375 L 63.832031 185.988281 C 63.769531 185.441406 63.453125 184.957031 62.984375 184.671875 L 56.867188 181.003906 L 56.0625 173.921875 C 56 173.371094 55.6875 172.886719 55.214844 172.601562 L 50.792969 169.953125 L 128.292969 120.054688 L 141.914062 141.207031 Z M 47.691406 192.765625 C 46.988281 191.355469 46.1875 189.945312 45.296875 188.558594 C 44.390625 187.15625 43.425781 185.820312 42.414062 184.582031 L 48.828125 172.90625 L 52.640625 175.195312 L 53.449219 182.273438 C 53.507812 182.820312 53.824219 183.3125 54.296875 183.59375 L 60.410156 187.261719 L 60.914062 191.691406 Z M 161.574219 113.585938 C 159.246094 109.964844 155.644531 107.46875 151.433594 106.554688 C 147.222656 105.644531 142.910156 106.425781 139.292969 108.757812 L 127.863281 116.117188 L 47.972656 167.554688 C 47.921875 167.589844 47.871094 167.621094 47.820312 167.664062 C 47.8125 167.671875 47.804688 167.679688 47.796875 167.691406 C 47.757812 167.714844 47.726562 167.742188 47.695312 167.777344 C 47.667969 167.800781 47.648438 167.824219 47.628906 167.847656 C 47.609375 167.863281 47.589844 167.886719 47.574219 167.902344 C 47.539062 167.945312 47.511719 167.988281 47.476562 168.027344 C 47.476562 168.035156 47.472656 168.039062 47.46875 168.039062 C 47.429688 168.09375 47.402344 168.148438 47.371094 168.199219 L 38.71875 183.941406 L 32.769531 194.773438 C 32.6875 194.925781 32.628906 195.085938 32.59375 195.25 C 32.492188 195.703125 32.578125 196.1875 32.835938 196.589844 C 33.191406 197.136719 33.816406 197.445312 34.464844 197.394531 L 46.765625 196.398438 L 64.59375 194.949219 C 64.597656 194.949219 64.605469 194.949219 64.605469 194.949219 L 64.628906 194.949219 C 64.679688 194.941406 64.730469 194.933594 64.785156 194.925781 C 64.804688 194.921875 64.820312 194.917969 64.839844 194.914062 C 64.875 194.90625 64.914062 194.898438 64.953125 194.886719 C 64.980469 194.878906 65.003906 194.871094 65.035156 194.863281 C 65.0625 194.847656 65.089844 194.839844 65.113281 194.832031 C 65.152344 194.816406 65.1875 194.796875 65.222656 194.785156 C 65.242188 194.773438 65.257812 194.769531 65.273438 194.761719 C 65.320312 194.734375 65.367188 194.707031 65.410156 194.679688 C 65.417969 194.675781 65.421875 194.675781 65.425781 194.675781 L 65.429688 194.671875 C 65.433594 194.667969 65.4375 194.667969 65.4375 194.664062 L 145.320312 143.226562 L 145.324219 143.226562 L 156.746094 135.871094 C 160.371094 133.539062 162.867188 129.941406 163.78125 125.730469 C 164.691406 121.519531 163.910156 117.207031 161.574219 113.585938 " fill-opacity="1" fill-rule="nonzero"/><path fill="#4f68a6" d="M 374.136719 279.121094 L 374.667969 286.234375 C 374.707031 286.78125 375 287.28125 375.464844 287.582031 L 381.433594 291.484375 L 381.765625 295.929688 L 368.507812 296.492188 C 367.863281 295.050781 367.117188 293.613281 366.28125 292.195312 C 365.429688 290.753906 364.515625 289.386719 363.550781 288.109375 L 370.414062 276.6875 Z M 405 250.511719 L 369.769531 271.308594 C 369.714844 271.34375 369.664062 271.375 369.613281 271.410156 C 369.605469 271.417969 369.59375 271.425781 369.585938 271.433594 C 369.550781 271.464844 369.511719 271.492188 369.480469 271.519531 C 369.457031 271.542969 369.433594 271.566406 369.414062 271.585938 L 369.355469 271.640625 C 369.320312 271.675781 369.289062 271.71875 369.257812 271.761719 C 369.253906 271.769531 369.246094 271.769531 369.246094 271.777344 C 369.207031 271.828125 369.171875 271.878906 369.136719 271.9375 L 359.886719 287.328125 L 353.523438 297.917969 C 353.433594 298.066406 353.367188 298.226562 353.324219 298.386719 C 353.210938 298.839844 353.273438 299.328125 353.515625 299.738281 C 353.851562 300.300781 354.464844 300.628906 355.117188 300.597656 L 367.445312 300.085938 L 367.445312 300.082031 L 385.316406 299.328125 L 385.347656 299.328125 C 385.398438 299.324219 385.453125 299.320312 385.507812 299.3125 C 385.523438 299.308594 385.542969 299.304688 385.558594 299.300781 C 385.597656 299.296875 385.636719 299.289062 385.675781 299.277344 C 385.703125 299.273438 385.730469 299.261719 385.757812 299.253906 C 385.789062 299.246094 385.8125 299.238281 385.839844 299.230469 C 385.878906 299.21875 385.914062 299.203125 385.953125 299.1875 C 385.96875 299.179688 385.988281 299.171875 386.003906 299.164062 C 386.050781 299.140625 386.097656 299.117188 386.140625 299.085938 C 386.148438 299.085938 386.152344 299.085938 386.15625 299.085938 L 386.160156 299.078125 C 386.164062 299.078125 386.167969 299.078125 386.171875 299.070312 L 405 287.960938 L 405 283.84375 L 385.285156 295.480469 L 384.898438 290.34375 C 384.859375 289.796875 384.566406 289.296875 384.101562 288.992188 L 378.136719 285.097656 L 377.605469 277.984375 C 377.5625 277.433594 377.269531 276.933594 376.804688 276.636719 L 372.492188 273.816406 L 405 254.628906 L 405 250.511719 " fill-opacity="1" fill-rule="nonzero"/><path fill="#84c3ca" d="M 402.332031 394.945312 C 402.332031 394.945312 402.332031 394.945312 402.328125 394.945312 L 392.722656 385.332031 C 389.679688 382.289062 385.628906 380.613281 381.320312 380.613281 C 377.015625 380.613281 372.964844 382.289062 369.921875 385.332031 C 366.875 388.378906 365.199219 392.429688 365.199219 396.734375 C 365.199219 399.691406 365.988281 402.527344 367.46875 405 L 371.835938 405 C 369.832031 402.710938 368.738281 399.808594 368.738281 396.734375 C 368.738281 393.371094 370.046875 390.210938 372.425781 387.839844 C 374.800781 385.464844 377.960938 384.15625 381.320312 384.15625 C 384.683594 384.15625 387.839844 385.464844 390.21875 387.839844 L 398.574219 396.195312 L 389.769531 405 L 394.78125 405 L 401.082031 398.703125 L 405 402.617188 L 405 397.609375 L 402.332031 394.945312 " fill-opacity="1" fill-rule="nonzero"/><path fill="#84c3ca" d="M 467.816406 78.105469 C 466.632812 79.285156 465.535156 80.515625 464.539062 81.761719 L 451.769531 77.96875 L 453.195312 73.753906 L 459.945312 71.46875 C 460.46875 71.292969 460.878906 70.878906 461.054688 70.359375 L 463.339844 63.605469 L 467.566406 62.175781 L 471.414062 74.871094 C 470.183594 75.855469 468.976562 76.941406 467.816406 78.105469 Z M 478.738281 86.816406 L 475.160156 75.011719 L 469.972656 57.890625 C 469.972656 57.886719 469.972656 57.882812 469.972656 57.878906 L 469.972656 57.875 C 469.964844 57.867188 469.964844 57.867188 469.960938 57.859375 C 469.945312 57.808594 469.925781 57.757812 469.910156 57.707031 C 469.902344 57.691406 469.894531 57.675781 469.886719 57.664062 C 469.871094 57.625 469.851562 57.585938 469.832031 57.554688 C 469.820312 57.53125 469.808594 57.503906 469.792969 57.476562 C 469.777344 57.453125 469.761719 57.429688 469.746094 57.410156 C 469.722656 57.371094 469.699219 57.339844 469.675781 57.3125 C 469.667969 57.292969 469.65625 57.277344 469.648438 57.265625 C 469.609375 57.226562 469.574219 57.1875 469.539062 57.148438 C 469.53125 57.144531 469.527344 57.136719 469.523438 57.136719 L 469.519531 57.132812 C 469.519531 57.128906 469.515625 57.128906 469.511719 57.125 L 412.390625 0 L 407.382812 0 L 466.257812 58.878906 L 461.375 60.53125 C 460.859375 60.707031 460.445312 61.117188 460.265625 61.640625 L 457.976562 68.394531 L 451.230469 70.679688 C 450.703125 70.859375 450.296875 71.265625 450.121094 71.792969 L 448.464844 76.671875 L 405 33.203125 L 405 38.214844 L 446.71875 79.933594 C 446.765625 79.980469 446.808594 80.019531 446.855469 80.058594 C 446.867188 80.066406 446.875 80.074219 446.886719 80.082031 C 446.921875 80.109375 446.957031 80.136719 446.996094 80.160156 C 447.019531 80.183594 447.046875 80.195312 447.074219 80.210938 C 447.097656 80.222656 447.121094 80.234375 447.140625 80.25 C 447.191406 80.277344 447.238281 80.296875 447.285156 80.316406 C 447.289062 80.320312 447.292969 80.320312 447.300781 80.324219 C 447.359375 80.347656 447.417969 80.371094 447.476562 80.382812 L 464.6875 85.507812 L 476.539062 89.03125 C 476.707031 89.078125 476.875 89.105469 477.039062 89.105469 C 477.507812 89.105469 477.960938 88.917969 478.296875 88.578125 C 478.757812 88.121094 478.929688 87.445312 478.738281 86.816406 " fill-opacity="1" fill-rule="nonzero"/><path fill="#84c3ca" d="M 788.289062 11.492188 L 799.78125 0 L 794.769531 0 L 785.78125 8.988281 L 777.425781 0.628906 C 777.21875 0.425781 777.023438 0.214844 776.839844 0 L 772.46875 0 C 773.144531 1.125 773.96875 2.183594 774.917969 3.140625 L 784.53125 12.746094 C 784.53125 12.746094 784.53125 12.75 784.535156 12.75 L 810 38.214844 L 810 33.203125 L 788.289062 11.492188 " fill-opacity="1" fill-rule="nonzero"/><path fill="#84c3ca" d="M 405 397.609375 L 405 402.617188 L 407.382812 405 L 412.390625 405 L 405 397.609375 " fill-opacity="1" fill-rule="nonzero"/><path fill="#4f68a6" d="M 483.675781 233.117188 C 482.835938 236.371094 480.785156 239.101562 477.886719 240.8125 L 467.710938 246.824219 L 454.921875 225.15625 L 465.09375 219.144531 C 467.988281 217.4375 471.375 216.957031 474.628906 217.796875 C 477.882812 218.636719 480.617188 220.6875 482.328125 223.582031 C 484.035156 226.480469 484.511719 229.859375 483.675781 233.117188 Z M 485.375 221.78125 C 483.1875 218.070312 479.6875 215.441406 475.515625 214.367188 C 471.34375 213.292969 467 213.90625 463.296875 216.097656 L 451.59375 223 C 451.59375 223 451.59375 223 451.589844 223 C 451.589844 223.003906 451.589844 223.003906 451.589844 223.003906 L 405 250.511719 L 405 254.628906 L 451.867188 226.953125 L 464.660156 248.621094 L 405 283.84375 L 405 287.960938 L 467.984375 250.773438 L 479.691406 243.867188 C 483.398438 241.675781 486.03125 238.171875 487.105469 234 C 488.179688 229.828125 487.566406 225.492188 485.375 221.78125 " fill-opacity="1" fill-rule="nonzero"/><path fill="#e74632" d="M 595.53125 329.246094 L 593.835938 317.546875 C 593.351562 314.222656 594.195312 310.910156 596.203125 308.214844 C 598.214844 305.523438 601.148438 303.773438 604.476562 303.292969 C 607.804688 302.808594 611.117188 303.648438 613.808594 305.65625 C 616.503906 307.671875 618.253906 310.605469 618.734375 313.933594 L 620.429688 325.628906 Z M 624.195312 326.871094 L 622.242188 313.421875 C 621.621094 309.160156 619.378906 305.394531 615.933594 302.816406 C 612.476562 300.242188 608.230469 299.164062 603.96875 299.785156 C 599.703125 300.402344 595.9375 302.644531 593.363281 306.09375 C 590.785156 309.546875 589.707031 313.796875 590.328125 318.058594 L 592.28125 331.503906 L 592.28125 331.507812 L 602.957031 405 L 606.535156 405 L 596.042969 332.75 L 620.941406 329.136719 L 631.957031 405 L 635.542969 405 L 624.195312 326.871094 " fill-opacity="1" fill-rule="nonzero"/><path fill="#e74632" d="M 628.753906 31.257812 C 627.183594 31.308594 625.566406 31.453125 623.9375 31.691406 C 622.28125 31.929688 620.671875 32.257812 619.125 32.664062 L 611.160156 21.984375 L 614.820312 19.460938 L 621.601562 21.667969 C 622.128906 21.839844 622.699219 21.757812 623.152344 21.445312 L 629.023438 17.398438 L 633.265625 18.78125 Z M 637.855469 15.925781 C 637.855469 15.925781 637.855469 15.917969 637.851562 15.910156 L 637.851562 15.894531 L 635.542969 0 L 631.957031 0 L 634.1875 15.355469 L 629.289062 13.761719 C 628.765625 13.589844 628.1875 13.667969 627.738281 13.984375 L 621.863281 18.027344 L 615.085938 15.824219 C 614.5625 15.652344 613.988281 15.734375 613.535156 16.046875 L 609.289062 18.96875 L 606.535156 0 L 602.957031 0 L 605.9375 20.542969 C 605.945312 20.601562 605.957031 20.660156 605.972656 20.71875 C 605.976562 20.734375 605.980469 20.742188 605.980469 20.757812 C 605.992188 20.800781 606.007812 20.84375 606.023438 20.890625 C 606.035156 20.917969 606.046875 20.945312 606.058594 20.972656 C 606.066406 21 606.074219 21.023438 606.089844 21.046875 C 606.109375 21.089844 606.132812 21.140625 606.164062 21.183594 C 606.164062 21.191406 606.167969 21.191406 606.167969 21.203125 C 606.203125 21.253906 606.234375 21.308594 606.277344 21.359375 L 617.007812 35.753906 L 624.394531 45.664062 C 624.496094 45.804688 624.621094 45.921875 624.753906 46.027344 C 625.125 46.304688 625.601562 46.429688 626.074219 46.359375 C 626.71875 46.261719 627.257812 45.820312 627.484375 45.207031 L 631.675781 33.605469 L 637.757812 16.785156 C 637.757812 16.777344 637.761719 16.777344 637.761719 16.769531 C 637.765625 16.761719 637.765625 16.757812 637.769531 16.75 C 637.785156 16.703125 637.800781 16.652344 637.816406 16.601562 C 637.816406 16.585938 637.824219 16.5625 637.824219 16.546875 C 637.832031 16.507812 637.84375 16.472656 637.851562 16.429688 C 637.855469 16.402344 637.855469 16.375 637.859375 16.34375 C 637.863281 16.316406 637.867188 16.289062 637.867188 16.261719 C 637.867188 16.21875 637.867188 16.179688 637.867188 16.140625 L 637.867188 16.085938 C 637.867188 16.027344 637.859375 15.976562 637.855469 15.925781 " fill-opacity="1" fill-rule="nonzero"/><path fill="#84c3ca" d="M 683.238281 235.855469 C 682.960938 237.503906 682.78125 239.144531 682.695312 240.734375 L 670.09375 245.058594 L 668.808594 240.804688 L 672.980469 235.023438 C 673.304688 234.574219 673.398438 234 673.238281 233.476562 L 671.1875 226.648438 L 673.789062 223.03125 L 684.296875 231.132812 C 683.867188 232.652344 683.511719 234.230469 683.238281 235.855469 Z M 665.425781 239.441406 C 665.101562 239.886719 665.003906 240.460938 665.164062 240.988281 L 666.652344 245.921875 L 575.742188 230.691406 L 579.902344 205.878906 L 670.808594 221.109375 L 667.796875 225.285156 C 667.472656 225.734375 667.378906 226.304688 667.542969 226.832031 L 669.59375 233.660156 Z M 572.25 230.105469 L 560.59375 228.152344 C 557.28125 227.597656 554.386719 225.78125 552.429688 223.050781 C 550.480469 220.3125 549.714844 216.980469 550.265625 213.664062 C 550.820312 210.347656 552.636719 207.453125 555.367188 205.5 C 558.105469 203.550781 561.4375 202.785156 564.75 203.339844 L 576.410156 205.289062 Z M 697.195312 236.609375 L 687.425781 229.070312 L 673.261719 218.144531 C 673.261719 218.140625 673.253906 218.136719 673.253906 218.136719 C 673.246094 218.132812 673.238281 218.128906 673.238281 218.125 C 673.195312 218.09375 673.152344 218.0625 673.105469 218.035156 C 673.089844 218.027344 673.078125 218.015625 673.0625 218.007812 C 673.023438 217.992188 672.992188 217.96875 672.957031 217.949219 C 672.929688 217.933594 672.898438 217.925781 672.875 217.914062 C 672.851562 217.90625 672.820312 217.894531 672.796875 217.882812 C 672.761719 217.871094 672.722656 217.855469 672.683594 217.839844 C 672.667969 217.839844 672.648438 217.832031 672.632812 217.828125 C 672.578125 217.8125 672.527344 217.800781 672.480469 217.792969 C 672.472656 217.792969 672.464844 217.789062 672.460938 217.789062 L 672.457031 217.789062 C 672.453125 217.789062 672.449219 217.789062 672.445312 217.789062 L 578.742188 202.085938 L 565.339844 199.84375 C 561.089844 199.128906 556.816406 200.113281 553.316406 202.613281 C 549.808594 205.117188 547.484375 208.835938 546.769531 213.078125 C 546.058594 217.328125 547.046875 221.601562 549.542969 225.101562 C 552.046875 228.613281 555.761719 230.933594 560.007812 231.648438 L 573.410156 233.890625 C 573.414062 233.890625 573.414062 233.890625 573.414062 233.890625 L 667.125 249.59375 C 667.1875 249.605469 667.246094 249.609375 667.308594 249.617188 L 667.347656 249.617188 C 667.390625 249.621094 667.433594 249.621094 667.484375 249.621094 C 667.511719 249.617188 667.546875 249.613281 667.578125 249.609375 C 667.601562 249.605469 667.628906 249.605469 667.65625 249.605469 C 667.707031 249.597656 667.757812 249.589844 667.8125 249.578125 C 667.8125 249.578125 667.820312 249.578125 667.824219 249.574219 C 667.890625 249.5625 667.945312 249.539062 668.007812 249.519531 L 684.996094 243.695312 L 696.683594 239.6875 C 696.851562 239.628906 697 239.554688 697.136719 239.457031 C 697.519531 239.183594 697.785156 238.769531 697.859375 238.300781 C 697.964844 237.65625 697.710938 237.011719 697.195312 236.609375 " fill-opacity="1" fill-rule="nonzero"/><path fill="#ffb923" d="M 748.503906 97.601562 L 744.539062 95.597656 L 743.226562 88.589844 C 743.125 88.046875 742.777344 87.582031 742.285156 87.335938 L 735.921875 84.117188 L 735.097656 79.734375 L 748.214844 77.710938 C 749.015625 79.070312 749.917969 80.417969 750.902344 81.734375 C 751.90625 83.070312 752.96875 84.328125 754.066406 85.492188 Z M 673.050781 156.027344 L 657.941406 135.910156 L 731.652344 80.566406 L 732.601562 85.628906 C 732.707031 86.171875 733.050781 86.632812 733.542969 86.886719 L 739.902344 90.105469 L 741.21875 97.105469 C 741.320312 97.648438 741.667969 98.109375 742.15625 98.363281 L 746.761719 100.6875 Z M 660.761719 165.253906 C 658.074219 167.269531 654.761719 168.121094 651.433594 167.648438 C 648.109375 167.175781 645.164062 165.433594 643.148438 162.746094 C 641.128906 160.058594 640.28125 156.746094 640.753906 153.417969 C 641.230469 150.09375 642.96875 147.148438 645.65625 145.132812 L 655.109375 138.035156 L 670.214844 158.15625 Z M 762.757812 72.828125 C 762.363281 72.308594 761.714844 72.046875 761.066406 72.148438 L 748.875 74.027344 L 731.195312 76.746094 C 731.195312 76.746094 731.191406 76.753906 731.183594 76.753906 L 731.179688 76.753906 C 731.175781 76.753906 731.171875 76.753906 731.167969 76.753906 C 731.109375 76.761719 731.0625 76.769531 731.007812 76.785156 C 730.992188 76.792969 730.976562 76.796875 730.960938 76.800781 C 730.917969 76.8125 730.882812 76.820312 730.84375 76.835938 C 730.816406 76.847656 730.789062 76.863281 730.761719 76.871094 C 730.738281 76.878906 730.707031 76.890625 730.683594 76.902344 C 730.648438 76.921875 730.613281 76.941406 730.578125 76.957031 C 730.5625 76.96875 730.546875 76.976562 730.53125 76.988281 C 730.488281 77.015625 730.441406 77.042969 730.402344 77.074219 C 730.398438 77.074219 730.394531 77.078125 730.386719 77.082031 L 730.386719 77.085938 C 730.386719 77.09375 730.375 77.09375 730.375 77.09375 L 654.394531 134.136719 C 654.394531 134.140625 654.394531 134.140625 654.394531 134.140625 L 643.523438 142.296875 C 640.082031 144.882812 637.855469 148.65625 637.246094 152.917969 C 636.640625 157.183594 637.730469 161.429688 640.3125 164.871094 C 642.902344 168.320312 646.671875 170.550781 650.9375 171.15625 C 655.203125 171.765625 659.445312 170.671875 662.886719 168.085938 L 673.757812 159.925781 L 749.742188 102.875 C 749.792969 102.839844 749.839844 102.800781 749.886719 102.757812 C 749.894531 102.753906 749.90625 102.742188 749.914062 102.730469 C 749.941406 102.699219 749.980469 102.671875 750.007812 102.636719 C 750.027344 102.609375 750.046875 102.585938 750.066406 102.5625 C 750.082031 102.542969 750.101562 102.523438 750.117188 102.5 C 750.144531 102.457031 750.175781 102.414062 750.203125 102.371094 C 750.207031 102.363281 750.210938 102.363281 750.214844 102.355469 C 750.242188 102.300781 750.273438 102.242188 750.300781 102.183594 L 757.792969 85.867188 L 762.949219 74.632812 C 763.023438 74.480469 763.070312 74.3125 763.09375 74.148438 C 763.164062 73.691406 763.039062 73.210938 762.757812 72.828125 " fill-opacity="1" fill-rule="nonzero"/><path fill="#e74632" d="M 565.316406 124.980469 C 564.601562 128.261719 562.660156 131.074219 559.832031 132.890625 L 549.894531 139.292969 L 536.273438 118.136719 L 546.210938 111.738281 C 549.035156 109.921875 552.398438 109.308594 555.683594 110.019531 C 558.96875 110.730469 561.78125 112.679688 563.597656 115.503906 C 565.417969 118.332031 566.027344 121.695312 565.316406 124.980469 Z M 469.414062 191.109375 L 468.832031 185.988281 C 468.765625 185.441406 468.457031 184.957031 467.984375 184.671875 L 461.871094 181.003906 L 461.0625 173.921875 C 461 173.371094 460.6875 172.886719 460.214844 172.601562 L 455.796875 169.953125 L 533.296875 120.054688 L 546.917969 141.207031 Z M 452.6875 192.765625 C 451.988281 191.355469 451.191406 189.945312 450.300781 188.558594 C 449.390625 187.15625 448.421875 185.820312 447.410156 184.582031 L 453.828125 172.90625 L 457.640625 175.195312 L 458.449219 182.273438 C 458.507812 182.820312 458.824219 183.3125 459.292969 183.59375 L 465.410156 187.261719 L 465.917969 191.691406 Z M 566.574219 113.585938 C 564.246094 109.964844 560.644531 107.46875 556.433594 106.554688 C 552.226562 105.644531 547.914062 106.425781 544.292969 108.757812 L 532.863281 116.117188 L 452.972656 167.554688 C 452.917969 167.589844 452.871094 167.621094 452.820312 167.664062 C 452.8125 167.671875 452.804688 167.679688 452.796875 167.691406 C 452.757812 167.714844 452.726562 167.742188 452.695312 167.777344 C 452.667969 167.800781 452.648438 167.824219 452.628906 167.847656 C 452.609375 167.863281 452.59375 167.886719 452.574219 167.902344 C 452.539062 167.945312 452.511719 167.988281 452.476562 168.027344 C 452.472656 168.035156 452.472656 168.039062 452.46875 168.039062 C 452.433594 168.09375 452.402344 168.148438 452.371094 168.199219 L 443.722656 183.941406 L 437.773438 194.773438 C 437.6875 194.925781 437.625 195.085938 437.59375 195.25 C 437.492188 195.703125 437.578125 196.1875 437.835938 196.589844 C 438.1875 197.136719 438.816406 197.445312 439.464844 197.394531 L 451.765625 196.398438 L 469.59375 194.949219 C 469.597656 194.949219 469.605469 194.949219 469.605469 194.949219 L 469.628906 194.949219 C 469.679688 194.941406 469.730469 194.933594 469.785156 194.925781 C 469.804688 194.921875 469.820312 194.917969 469.835938 194.914062 C 469.871094 194.90625 469.914062 194.898438 469.953125 194.886719 C 469.980469 194.878906 470.007812 194.871094 470.035156 194.863281 C 470.0625 194.847656 470.089844 194.839844 470.117188 194.832031 C 470.152344 194.816406 470.1875 194.796875 470.226562 194.785156 C 470.242188 194.773438 470.257812 194.769531 470.273438 194.761719 C 470.320312 194.734375 470.367188 194.707031 470.414062 194.679688 C 470.414062 194.675781 470.421875 194.675781 470.429688 194.675781 L 470.429688 194.671875 C 470.429688 194.667969 470.4375 194.667969 470.4375 194.664062 L 550.320312 143.226562 L 561.746094 135.871094 C 565.371094 133.539062 567.867188 129.941406 568.777344 125.730469 C 569.691406 121.519531 568.90625 117.207031 566.574219 113.585938 " fill-opacity="1" fill-rule="nonzero"/><path fill="#4f68a6" d="M 779.132812 279.121094 L 779.667969 286.234375 C 779.710938 286.78125 780 287.28125 780.464844 287.582031 L 786.433594 291.484375 L 786.765625 295.929688 L 773.507812 296.492188 C 772.863281 295.050781 772.117188 293.613281 771.28125 292.195312 C 770.425781 290.753906 769.515625 289.386719 768.550781 288.109375 L 775.417969 276.6875 Z M 810 250.511719 L 774.769531 271.308594 C 774.714844 271.34375 774.664062 271.375 774.613281 271.410156 C 774.605469 271.417969 774.59375 271.425781 774.582031 271.433594 C 774.550781 271.464844 774.511719 271.492188 774.476562 271.519531 C 774.457031 271.542969 774.433594 271.566406 774.414062 271.585938 L 774.355469 271.640625 C 774.320312 271.675781 774.289062 271.71875 774.257812 271.761719 C 774.253906 271.769531 774.246094 271.769531 774.242188 271.777344 C 774.207031 271.828125 774.171875 271.878906 774.136719 271.9375 L 764.890625 287.328125 L 758.519531 297.917969 C 758.433594 298.066406 758.371094 298.226562 758.324219 298.386719 C 758.210938 298.839844 758.273438 299.328125 758.515625 299.738281 C 758.851562 300.300781 759.464844 300.628906 760.117188 300.597656 L 772.445312 300.085938 L 772.445312 300.082031 L 790.316406 299.328125 L 790.351562 299.328125 C 790.402344 299.324219 790.453125 299.320312 790.507812 299.3125 C 790.523438 299.308594 790.539062 299.304688 790.558594 299.300781 C 790.597656 299.296875 790.636719 299.289062 790.675781 299.277344 C 790.703125 299.273438 790.730469 299.261719 790.757812 299.253906 C 790.785156 299.246094 790.8125 299.238281 790.839844 299.230469 C 790.875 299.21875 790.914062 299.203125 790.953125 299.1875 C 790.96875 299.179688 790.984375 299.171875 791 299.164062 C 791.050781 299.140625 791.09375 299.117188 791.144531 299.085938 C 791.148438 299.085938 791.152344 299.085938 791.160156 299.085938 L 791.160156 299.078125 C 791.164062 299.078125 791.167969 299.078125 791.171875 299.070312 L 810 287.960938 L 810 283.84375 L 790.285156 295.480469 L 789.898438 290.34375 C 789.859375 289.796875 789.566406 289.296875 789.101562 288.992188 L 783.136719 285.097656 L 782.601562 277.984375 C 782.5625 277.433594 782.269531 276.933594 781.804688 276.636719 L 777.492188 273.816406 L 810 254.628906 L 810 250.511719 " fill-opacity="1" fill-rule="nonzero"/><path fill="#84c3ca" d="M 807.335938 394.945312 C 807.335938 394.945312 807.335938 394.945312 807.332031 394.945312 L 797.71875 385.332031 C 794.679688 382.289062 790.628906 380.613281 786.320312 380.613281 C 782.015625 380.613281 777.964844 382.289062 774.917969 385.332031 C 771.875 388.378906 770.195312 392.429688 770.195312 396.734375 C 770.195312 399.691406 770.992188 402.527344 772.46875 405 L 776.839844 405 C 774.835938 402.710938 773.738281 399.808594 773.738281 396.734375 C 773.738281 393.371094 775.046875 390.210938 777.425781 387.839844 C 779.804688 385.464844 782.960938 384.15625 786.320312 384.15625 C 789.679688 384.15625 792.839844 385.464844 795.21875 387.839844 L 803.570312 396.195312 L 794.769531 405 L 799.78125 405 L 806.078125 398.703125 L 810 402.617188 L 810 397.609375 L 807.335938 394.945312 " fill-opacity="1" fill-rule="nonzero"/><path fill="#84c3ca" d="M 62.816406 483.105469 C 61.632812 484.285156 60.535156 485.515625 59.539062 486.761719 L 46.769531 482.96875 L 48.195312 478.757812 L 54.945312 476.46875 C 55.46875 476.292969 55.878906 475.882812 56.054688 475.359375 L 58.34375 468.605469 L 62.570312 467.175781 L 66.417969 479.871094 C 65.1875 480.855469 63.976562 481.941406 62.816406 483.105469 Z M 73.738281 491.816406 L 70.160156 480.011719 L 64.972656 462.890625 C 64.972656 462.886719 64.972656 462.882812 64.96875 462.878906 L 64.96875 462.875 C 64.964844 462.867188 64.964844 462.867188 64.960938 462.859375 C 64.945312 462.808594 64.929688 462.761719 64.910156 462.707031 C 64.902344 462.691406 64.894531 462.679688 64.886719 462.664062 C 64.867188 462.625 64.855469 462.585938 64.835938 462.554688 C 64.820312 462.53125 64.804688 462.503906 64.789062 462.476562 C 64.773438 462.453125 64.761719 462.429688 64.746094 462.410156 C 64.726562 462.371094 64.699219 462.339844 64.675781 462.3125 C 64.664062 462.292969 64.652344 462.277344 64.644531 462.265625 C 64.609375 462.226562 64.570312 462.1875 64.535156 462.148438 C 64.53125 462.144531 64.53125 462.136719 64.527344 462.136719 L 64.523438 462.132812 C 64.519531 462.128906 64.515625 462.128906 64.511719 462.125 L 7.390625 405 L 2.378906 405 L 61.257812 463.878906 L 56.375 465.53125 C 55.855469 465.707031 55.445312 466.125 55.265625 466.640625 L 52.980469 473.394531 L 46.230469 475.679688 C 45.707031 475.859375 45.296875 476.265625 45.121094 476.792969 L 43.464844 481.671875 L 0 438.203125 L 0 443.214844 L 41.71875 484.933594 C 41.761719 484.980469 41.808594 485.019531 41.855469 485.058594 C 41.863281 485.066406 41.875 485.074219 41.886719 485.082031 C 41.921875 485.109375 41.957031 485.136719 41.996094 485.160156 C 42.019531 485.183594 42.046875 485.199219 42.078125 485.210938 C 42.097656 485.222656 42.121094 485.238281 42.140625 485.25 C 42.1875 485.277344 42.238281 485.296875 42.285156 485.320312 C 42.289062 485.320312 42.292969 485.320312 42.300781 485.324219 C 42.359375 485.347656 42.417969 485.371094 42.476562 485.382812 L 59.691406 490.507812 L 71.539062 494.03125 C 71.703125 494.078125 71.875 494.105469 72.042969 494.105469 C 72.507812 494.105469 72.960938 493.917969 73.296875 493.582031 C 73.757812 493.121094 73.929688 492.445312 73.738281 491.816406 " fill-opacity="1" fill-rule="nonzero"/><path fill="#84c3ca" d="M 383.289062 416.492188 L 394.78125 405 L 389.769531 405 L 380.78125 413.988281 L 372.425781 405.628906 C 372.21875 405.425781 372.023438 405.214844 371.835938 405 L 367.46875 405 C 368.144531 406.125 368.96875 407.183594 369.921875 408.140625 L 379.527344 417.746094 C 379.527344 417.746094 379.527344 417.75 379.53125 417.75 L 405 443.214844 L 405 438.203125 L 383.289062 416.492188 " fill-opacity="1" fill-rule="nonzero"/><path fill="#84c3ca" d="M 0 802.609375 L 0 807.617188 L 2.378906 810 L 7.390625 810 L 0 802.609375 " fill-opacity="1" fill-rule="nonzero"/><path fill="#4f68a6" d="M 78.675781 638.117188 C 77.835938 641.371094 75.78125 644.101562 72.886719 645.8125 L 62.710938 651.824219 L 49.921875 630.15625 L 60.09375 624.144531 C 62.988281 622.4375 66.378906 621.957031 69.628906 622.796875 C 72.882812 623.636719 75.617188 625.695312 77.328125 628.582031 C 79.035156 631.480469 79.515625 634.859375 78.675781 638.117188 Z M 80.375 626.78125 C 78.1875 623.070312 74.683594 620.441406 70.511719 619.367188 C 66.34375 618.292969 62.003906 618.90625 58.292969 621.097656 L 46.59375 628 C 46.59375 628 46.59375 628 46.589844 628 C 46.589844 628.003906 46.589844 628.003906 46.589844 628.003906 L 0 655.511719 L 0 659.628906 L 46.867188 631.953125 L 59.660156 653.621094 L 0 688.84375 L 0 692.960938 L 62.988281 655.773438 L 74.6875 648.867188 C 78.398438 646.675781 81.03125 643.171875 82.105469 639 C 83.179688 634.828125 82.566406 630.492188 80.375 626.78125 " fill-opacity="1" fill-rule="nonzero"/><path fill="#e74632" d="M 190.535156 734.246094 L 188.835938 722.546875 C 188.351562 719.222656 189.195312 715.910156 191.203125 713.214844 C 193.214844 710.523438 196.152344 708.773438 199.476562 708.292969 C 202.800781 707.808594 206.117188 708.648438 208.808594 710.65625 C 211.503906 712.671875 213.25 715.605469 213.734375 718.933594 L 215.429688 730.628906 Z M 219.195312 731.871094 L 217.242188 718.421875 C 216.621094 714.160156 214.378906 710.394531 210.929688 707.816406 C 207.480469 705.242188 203.230469 704.164062 198.96875 704.785156 C 194.707031 705.402344 190.9375 707.644531 188.363281 711.09375 C 185.785156 714.550781 184.707031 718.796875 185.328125 723.058594 L 187.28125 736.503906 L 187.28125 736.507812 L 197.953125 810 L 201.535156 810 L 191.042969 737.75 L 215.941406 734.136719 L 226.960938 810 L 230.542969 810 L 219.195312 731.871094 " fill-opacity="1" fill-rule="nonzero"/><path fill="#e74632" d="M 223.757812 436.257812 C 222.183594 436.308594 220.566406 436.453125 218.941406 436.691406 C 217.28125 436.929688 215.667969 437.257812 214.125 437.664062 L 206.160156 426.984375 L 209.820312 424.460938 L 216.601562 426.667969 C 217.125 426.839844 217.699219 426.757812 218.152344 426.445312 L 224.023438 422.398438 L 228.265625 423.78125 Z M 232.851562 420.925781 C 232.851562 420.925781 232.851562 420.917969 232.851562 420.910156 L 232.851562 420.894531 L 230.542969 405 L 226.960938 405 L 229.1875 420.355469 L 224.289062 418.761719 C 223.765625 418.589844 223.191406 418.667969 222.738281 418.984375 L 216.863281 423.027344 L 210.085938 420.824219 C 209.5625 420.652344 208.988281 420.734375 208.535156 421.046875 L 204.289062 423.96875 L 201.535156 405 L 197.953125 405 L 200.933594 425.542969 C 200.945312 425.601562 200.957031 425.664062 200.972656 425.71875 C 200.976562 425.734375 200.980469 425.742188 200.984375 425.757812 C 200.996094 425.800781 201.007812 425.84375 201.023438 425.890625 C 201.035156 425.917969 201.042969 425.945312 201.058594 425.972656 C 201.066406 426 201.078125 426.023438 201.089844 426.046875 C 201.109375 426.089844 201.136719 426.140625 201.164062 426.183594 C 201.164062 426.191406 201.167969 426.191406 201.167969 426.203125 C 201.203125 426.253906 201.238281 426.308594 201.277344 426.359375 L 212.007812 440.753906 L 219.394531 450.664062 C 219.496094 450.804688 219.621094 450.921875 219.753906 451.027344 C 220.128906 451.304688 220.601562 451.429688 221.074219 451.359375 C 221.71875 451.261719 222.257812 450.820312 222.484375 450.207031 L 226.675781 438.605469 L 232.757812 421.785156 C 232.757812 421.777344 232.761719 421.777344 232.761719 421.777344 L 232.761719 421.769531 C 232.765625 421.761719 232.765625 421.757812 232.769531 421.75 C 232.789062 421.703125 232.804688 421.652344 232.816406 421.601562 C 232.820312 421.585938 232.820312 421.5625 232.824219 421.546875 C 232.832031 421.507812 232.84375 421.472656 232.851562 421.429688 C 232.851562 421.402344 232.855469 421.375 232.859375 421.34375 C 232.863281 421.316406 232.867188 421.289062 232.867188 421.261719 C 232.867188 421.21875 232.867188 421.179688 232.867188 421.140625 L 232.867188 421.085938 C 232.867188 421.027344 232.859375 420.976562 232.851562 420.925781 " fill-opacity="1" fill-rule="nonzero"/><path fill="#84c3ca" d="M 278.238281 640.855469 C 277.964844 642.503906 277.78125 644.144531 277.695312 645.742188 L 265.09375 650.058594 L 263.808594 645.804688 L 267.980469 640.023438 C 268.304688 639.574219 268.398438 639 268.242188 638.476562 L 266.183594 631.648438 L 268.792969 628.03125 L 279.296875 636.132812 C 278.867188 637.652344 278.511719 639.230469 278.238281 640.855469 Z M 260.425781 644.441406 C 260.101562 644.890625 260.007812 645.460938 260.164062 645.988281 L 261.652344 650.921875 L 170.746094 635.691406 L 174.90625 610.878906 L 265.8125 626.109375 L 262.796875 630.285156 C 262.476562 630.734375 262.378906 631.304688 262.539062 631.832031 L 264.597656 638.660156 Z M 167.25 635.105469 L 155.59375 633.152344 C 152.28125 632.597656 149.382812 630.78125 147.429688 628.050781 C 145.480469 625.3125 144.714844 621.980469 145.265625 618.664062 C 145.820312 615.347656 147.636719 612.453125 150.371094 610.507812 C 153.105469 608.550781 156.4375 607.785156 159.753906 608.339844 L 171.410156 610.289062 Z M 292.195312 641.609375 L 282.425781 634.078125 L 282.425781 634.070312 L 268.261719 623.144531 C 268.257812 623.140625 268.257812 623.140625 268.253906 623.136719 L 268.25 623.136719 C 268.246094 623.132812 268.242188 623.128906 268.238281 623.125 C 268.195312 623.09375 268.152344 623.0625 268.105469 623.035156 C 268.089844 623.027344 268.074219 623.019531 268.0625 623.007812 C 268.027344 622.992188 267.992188 622.96875 267.953125 622.949219 C 267.929688 622.9375 267.902344 622.925781 267.875 622.914062 C 267.851562 622.90625 267.824219 622.894531 267.796875 622.882812 C 267.761719 622.871094 267.722656 622.859375 267.683594 622.839844 C 267.667969 622.839844 267.648438 622.832031 267.632812 622.828125 C 267.578125 622.816406 267.527344 622.800781 267.476562 622.792969 C 267.472656 622.792969 267.464844 622.789062 267.460938 622.789062 C 267.453125 622.789062 267.449219 622.789062 267.445312 622.789062 L 173.742188 607.085938 L 160.339844 604.84375 C 156.089844 604.128906 151.820312 605.117188 148.3125 607.613281 C 144.804688 610.117188 142.484375 613.835938 141.773438 618.078125 C 141.058594 622.332031 142.046875 626.601562 144.542969 630.105469 C 147.046875 633.613281 150.761719 635.933594 155.007812 636.648438 L 168.410156 638.894531 C 168.414062 638.894531 168.414062 638.894531 168.414062 638.894531 L 262.125 654.59375 C 262.1875 654.605469 262.246094 654.609375 262.308594 654.617188 L 262.347656 654.617188 C 262.390625 654.621094 262.4375 654.621094 262.484375 654.621094 C 262.515625 654.617188 262.546875 654.613281 262.578125 654.609375 C 262.601562 654.609375 262.628906 654.609375 262.65625 654.605469 C 262.707031 654.597656 262.757812 654.589844 262.808594 654.578125 C 262.8125 654.578125 262.820312 654.578125 262.824219 654.574219 C 262.886719 654.5625 262.949219 654.539062 263.007812 654.519531 L 279.996094 648.695312 L 291.6875 644.6875 C 291.847656 644.628906 292 644.554688 292.140625 644.457031 C 292.519531 644.183594 292.78125 643.769531 292.859375 643.300781 C 292.964844 642.65625 292.710938 642.011719 292.195312 641.609375 " fill-opacity="1" fill-rule="nonzero"/><path fill="#ffb923" d="M 343.503906 502.601562 L 339.539062 500.597656 L 338.230469 493.589844 C 338.125 493.046875 337.777344 492.582031 337.285156 492.335938 L 330.921875 489.117188 L 330.101562 484.734375 L 343.210938 482.710938 C 344.011719 484.070312 344.917969 485.417969 345.90625 486.738281 C 346.90625 488.074219 347.96875 489.328125 349.066406 490.492188 Z M 268.046875 561.027344 L 252.941406 540.910156 L 326.652344 485.566406 L 327.601562 490.628906 C 327.703125 491.171875 328.050781 491.636719 328.542969 491.886719 L 334.902344 495.105469 L 336.21875 502.105469 C 336.320312 502.648438 336.667969 503.109375 337.160156 503.363281 L 341.757812 505.6875 Z M 255.761719 570.253906 C 253.074219 572.273438 249.761719 573.125 246.4375 572.648438 C 243.109375 572.175781 240.164062 570.433594 238.148438 567.746094 C 236.128906 565.058594 235.28125 561.746094 235.753906 558.421875 C 236.226562 555.09375 237.96875 552.148438 240.652344 550.132812 L 250.105469 543.035156 L 265.214844 563.15625 Z M 357.753906 477.828125 C 357.363281 477.308594 356.714844 477.046875 356.070312 477.148438 L 343.875 479.027344 L 326.195312 481.746094 C 326.191406 481.746094 326.191406 481.753906 326.183594 481.753906 L 326.179688 481.753906 C 326.171875 481.753906 326.171875 481.753906 326.164062 481.753906 C 326.113281 481.761719 326.0625 481.769531 326.007812 481.785156 C 325.988281 481.792969 325.976562 481.796875 325.960938 481.800781 C 325.917969 481.8125 325.882812 481.820312 325.84375 481.835938 C 325.816406 481.847656 325.789062 481.863281 325.765625 481.871094 C 325.738281 481.878906 325.710938 481.890625 325.683594 481.902344 C 325.648438 481.921875 325.613281 481.941406 325.578125 481.957031 C 325.566406 481.96875 325.546875 481.976562 325.53125 481.988281 C 325.484375 482.015625 325.441406 482.042969 325.402344 482.074219 C 325.394531 482.078125 325.390625 482.078125 325.386719 482.082031 L 325.386719 482.085938 C 325.382812 482.09375 325.375 482.09375 325.375 482.09375 L 249.394531 539.136719 C 249.394531 539.140625 249.394531 539.140625 249.394531 539.140625 L 238.527344 547.296875 C 235.082031 549.882812 232.851562 553.65625 232.246094 557.917969 C 231.636719 562.183594 232.726562 566.429688 235.316406 569.871094 C 237.898438 573.320312 241.671875 575.550781 245.933594 576.15625 C 250.199219 576.765625 254.445312 575.675781 257.886719 573.085938 L 268.757812 564.925781 L 344.746094 507.878906 C 344.792969 507.839844 344.839844 507.800781 344.886719 507.757812 C 344.894531 507.753906 344.902344 507.742188 344.914062 507.730469 C 344.945312 507.699219 344.980469 507.671875 345.007812 507.636719 C 345.027344 507.609375 345.046875 507.585938 345.066406 507.5625 C 345.085938 507.542969 345.101562 507.523438 345.117188 507.5 C 345.148438 507.457031 345.175781 507.414062 345.203125 507.371094 C 345.207031 507.363281 345.207031 507.363281 345.214844 507.355469 C 345.242188 507.300781 345.273438 507.242188 345.300781 507.191406 L 352.792969 490.867188 L 357.953125 479.632812 C 358.023438 479.480469 358.070312 479.3125 358.09375 479.148438 C 358.160156 478.691406 358.042969 478.210938 357.753906 477.828125 " fill-opacity="1" fill-rule="nonzero"/><path fill="#e74632" d="M 160.316406 529.980469 C 159.605469 533.261719 157.65625 536.074219 154.832031 537.890625 L 144.894531 544.292969 L 131.273438 523.136719 L 141.210938 516.738281 C 144.03125 514.921875 147.398438 514.308594 150.683594 515.019531 C 153.96875 515.734375 156.777344 517.679688 158.597656 520.503906 C 160.417969 523.332031 161.027344 526.695312 160.316406 529.980469 Z M 64.414062 596.109375 L 63.832031 590.988281 C 63.769531 590.441406 63.453125 589.957031 62.984375 589.671875 L 56.867188 586.003906 L 56.0625 578.921875 C 56 578.371094 55.6875 577.886719 55.214844 577.601562 L 50.792969 574.953125 L 128.292969 525.054688 L 141.914062 546.207031 Z M 47.691406 597.765625 C 46.988281 596.355469 46.1875 594.945312 45.296875 593.558594 C 44.390625 592.15625 43.425781 590.820312 42.414062 589.582031 L 48.828125 577.90625 L 52.640625 580.195312 L 53.449219 587.273438 C 53.507812 587.824219 53.824219 588.3125 54.296875 588.59375 L 60.410156 592.261719 L 60.914062 596.695312 Z M 161.574219 518.585938 C 159.246094 514.964844 155.644531 512.46875 151.433594 511.554688 C 147.222656 510.644531 142.910156 511.425781 139.292969 513.757812 L 127.863281 521.117188 L 47.972656 572.554688 C 47.921875 572.589844 47.871094 572.621094 47.820312 572.664062 C 47.8125 572.671875 47.804688 572.679688 47.796875 572.691406 C 47.757812 572.71875 47.726562 572.742188 47.695312 572.777344 C 47.667969 572.800781 47.648438 572.824219 47.628906 572.847656 C 47.609375 572.863281 47.589844 572.886719 47.574219 572.902344 C 47.539062 572.945312 47.511719 572.988281 47.476562 573.027344 C 47.476562 573.035156 47.472656 573.039062 47.46875 573.042969 C 47.429688 573.09375 47.402344 573.148438 47.371094 573.203125 L 38.71875 588.941406 L 32.769531 599.773438 C 32.6875 599.925781 32.628906 600.085938 32.59375 600.25 C 32.492188 600.703125 32.578125 601.191406 32.835938 601.589844 C 33.191406 602.136719 33.816406 602.445312 34.464844 602.394531 L 46.765625 601.398438 L 64.59375 599.949219 C 64.597656 599.949219 64.605469 599.949219 64.605469 599.949219 L 64.628906 599.949219 C 64.679688 599.941406 64.730469 599.933594 64.785156 599.925781 C 64.804688 599.921875 64.820312 599.917969 64.839844 599.914062 C 64.875 599.90625 64.914062 599.898438 64.953125 599.886719 C 64.980469 599.878906 65.003906 599.871094 65.035156 599.863281 C 65.0625 599.855469 65.089844 599.839844 65.113281 599.832031 C 65.152344 599.816406 65.1875 599.796875 65.222656 599.785156 C 65.242188 599.773438 65.257812 599.769531 65.273438 599.761719 C 65.320312 599.734375 65.367188 599.707031 65.410156 599.679688 C 65.417969 599.675781 65.421875 599.675781 65.425781 599.675781 L 65.429688 599.671875 C 65.433594 599.667969 65.4375 599.667969 65.4375 599.664062 L 145.320312 548.226562 L 145.324219 548.226562 L 156.746094 540.871094 C 160.371094 538.539062 162.867188 534.941406 163.78125 530.730469 C 164.691406 526.519531 163.910156 522.207031 161.574219 518.585938 " fill-opacity="1" fill-rule="nonzero"/><path fill="#4f68a6" d="M 374.136719 684.121094 L 374.667969 691.234375 C 374.707031 691.78125 375 692.28125 375.464844 692.582031 L 381.433594 696.484375 L 381.765625 700.929688 L 368.507812 701.492188 C 367.863281 700.050781 367.117188 698.613281 366.28125 697.195312 C 365.429688 695.757812 364.515625 694.386719 363.550781 693.109375 L 370.414062 681.6875 Z M 405 655.511719 L 369.769531 676.308594 C 369.714844 676.34375 369.664062 676.375 369.613281 676.410156 C 369.605469 676.417969 369.59375 676.425781 369.585938 676.433594 C 369.550781 676.464844 369.511719 676.492188 369.480469 676.519531 C 369.457031 676.542969 369.433594 676.566406 369.414062 676.585938 L 369.355469 676.640625 C 369.320312 676.683594 369.289062 676.722656 369.257812 676.761719 C 369.253906 676.769531 369.246094 676.769531 369.246094 676.777344 C 369.207031 676.828125 369.171875 676.878906 369.136719 676.9375 L 359.886719 692.328125 L 353.523438 702.917969 C 353.433594 703.066406 353.367188 703.226562 353.324219 703.386719 C 353.210938 703.839844 353.273438 704.328125 353.515625 704.738281 C 353.851562 705.300781 354.464844 705.628906 355.117188 705.597656 L 367.445312 705.085938 L 367.445312 705.082031 L 385.316406 704.328125 L 385.347656 704.328125 C 385.398438 704.324219 385.453125 704.320312 385.507812 704.3125 C 385.523438 704.308594 385.542969 704.304688 385.558594 704.304688 C 385.597656 704.296875 385.636719 704.289062 385.675781 704.277344 C 385.703125 704.273438 385.730469 704.261719 385.757812 704.253906 C 385.789062 704.246094 385.8125 704.238281 385.839844 704.230469 C 385.878906 704.21875 385.914062 704.203125 385.953125 704.1875 C 385.96875 704.179688 385.988281 704.171875 386.003906 704.164062 C 386.050781 704.140625 386.097656 704.117188 386.140625 704.085938 C 386.148438 704.085938 386.152344 704.085938 386.15625 704.085938 L 386.160156 704.078125 C 386.164062 704.078125 386.167969 704.078125 386.171875 704.070312 L 405 692.960938 L 405 688.84375 L 385.285156 700.480469 L 384.898438 695.34375 C 384.859375 694.796875 384.566406 694.296875 384.101562 693.992188 L 378.136719 690.097656 L 377.605469 682.984375 C 377.5625 682.433594 377.269531 681.933594 376.804688 681.636719 L 372.492188 678.816406 L 405 659.628906 L 405 655.511719 " fill-opacity="1" fill-rule="nonzero"/><path fill="#84c3ca" d="M 402.332031 799.941406 C 402.332031 799.941406 402.332031 799.941406 402.328125 799.941406 L 392.722656 790.332031 C 389.679688 787.285156 385.628906 785.613281 381.320312 785.613281 C 377.015625 785.613281 372.964844 787.285156 369.921875 790.332031 C 366.875 793.378906 365.199219 797.429688 365.199219 801.734375 C 365.199219 804.691406 365.988281 807.527344 367.46875 810 L 371.835938 810 C 369.832031 807.710938 368.738281 804.808594 368.738281 801.734375 C 368.738281 798.371094 370.046875 795.210938 372.425781 792.839844 C 374.800781 790.464844 377.960938 789.15625 381.320312 789.15625 C 384.683594 789.15625 387.839844 790.464844 390.21875 792.839844 L 398.574219 801.195312 L 389.769531 810 L 394.78125 810 L 401.082031 803.703125 L 405 807.617188 L 405 802.609375 L 402.332031 799.941406 " fill-opacity="1" fill-rule="nonzero"/><path fill="#84c3ca" d="M 467.816406 483.105469 C 466.632812 484.285156 465.535156 485.515625 464.539062 486.761719 L 451.769531 482.96875 L 453.195312 478.757812 L 459.945312 476.46875 C 460.46875 476.292969 460.878906 475.882812 461.054688 475.359375 L 463.339844 468.605469 L 467.566406 467.175781 L 471.414062 479.871094 C 470.183594 480.855469 468.976562 481.941406 467.816406 483.105469 Z M 478.738281 491.816406 L 475.160156 480.011719 L 469.972656 462.890625 C 469.972656 462.886719 469.972656 462.882812 469.972656 462.878906 L 469.972656 462.875 C 469.964844 462.867188 469.964844 462.867188 469.960938 462.859375 C 469.945312 462.808594 469.925781 462.761719 469.910156 462.707031 C 469.902344 462.691406 469.894531 462.679688 469.886719 462.664062 C 469.871094 462.625 469.851562 462.585938 469.832031 462.554688 C 469.820312 462.53125 469.808594 462.503906 469.792969 462.476562 C 469.777344 462.453125 469.761719 462.429688 469.746094 462.410156 C 469.722656 462.371094 469.699219 462.339844 469.675781 462.3125 C 469.667969 462.292969 469.65625 462.277344 469.648438 462.265625 C 469.609375 462.226562 469.574219 462.1875 469.539062 462.148438 C 469.53125 462.144531 469.527344 462.136719 469.523438 462.136719 L 469.519531 462.132812 C 469.519531 462.128906 469.515625 462.128906 469.511719 462.125 L 412.390625 405 L 407.382812 405 L 466.257812 463.878906 L 461.375 465.53125 C 460.859375 465.707031 460.445312 466.125 460.265625 466.640625 L 457.976562 473.394531 L 451.230469 475.679688 C 450.703125 475.859375 450.296875 476.265625 450.121094 476.792969 L 448.464844 481.671875 L 405 438.203125 L 405 443.214844 L 446.71875 484.933594 C 446.765625 484.980469 446.808594 485.019531 446.855469 485.058594 C 446.867188 485.066406 446.875 485.074219 446.886719 485.082031 C 446.921875 485.109375 446.957031 485.136719 446.996094 485.160156 C 447.019531 485.183594 447.046875 485.199219 447.074219 485.210938 C 447.097656 485.222656 447.121094 485.238281 447.140625 485.25 C 447.191406 485.277344 447.238281 485.296875 447.285156 485.320312 C 447.289062 485.320312 447.292969 485.320312 447.300781 485.324219 C 447.359375 485.347656 447.417969 485.371094 447.476562 485.382812 L 464.6875 490.507812 L 476.539062 494.03125 C 476.707031 494.078125 476.875 494.105469 477.039062 494.105469 C 477.507812 494.105469 477.960938 493.917969 478.296875 493.582031 C 478.757812 493.121094 478.929688 492.445312 478.738281 491.816406 " fill-opacity="1" fill-rule="nonzero"/><path fill="#84c3ca" d="M 788.289062 416.492188 L 799.78125 405 L 794.769531 405 L 785.78125 413.988281 L 777.425781 405.628906 C 777.21875 405.425781 777.023438 405.214844 776.839844 405 L 772.46875 405 C 773.144531 406.125 773.96875 407.183594 774.917969 408.140625 L 784.53125 417.746094 C 784.53125 417.746094 784.53125 417.75 784.535156 417.75 L 810 443.214844 L 810 438.203125 L 788.289062 416.492188 " fill-opacity="1" fill-rule="nonzero"/><path fill="#84c3ca" d="M 405 802.609375 L 405 807.617188 L 407.382812 810 L 412.390625 810 L 405 802.609375 " fill-opacity="1" fill-rule="nonzero"/><path fill="#4f68a6" d="M 483.675781 638.117188 C 482.835938 641.371094 480.785156 644.101562 477.886719 645.8125 L 467.710938 651.824219 L 454.921875 630.15625 L 465.09375 624.144531 C 467.988281 622.4375 471.375 621.957031 474.628906 622.796875 C 477.882812 623.636719 480.617188 625.695312 482.328125 628.582031 C 484.035156 631.480469 484.511719 634.859375 483.675781 638.117188 Z M 485.375 626.78125 C 483.1875 623.070312 479.6875 620.441406 475.515625 619.367188 C 471.34375 618.292969 467 618.90625 463.296875 621.097656 L 451.59375 628 C 451.59375 628 451.59375 628 451.589844 628 C 451.589844 628.003906 451.589844 628.003906 451.589844 628.003906 L 405 655.511719 L 405 659.628906 L 451.867188 631.953125 L 464.660156 653.621094 L 405 688.84375 L 405 692.960938 L 467.984375 655.773438 L 479.691406 648.867188 C 483.398438 646.675781 486.03125 643.171875 487.105469 639 C 488.179688 634.828125 487.566406 630.492188 485.375 626.78125 " fill-opacity="1" fill-rule="nonzero"/><path fill="#e74632" d="M 595.53125 734.246094 L 593.835938 722.546875 C 593.351562 719.222656 594.195312 715.910156 596.203125 713.214844 C 598.214844 710.523438 601.148438 708.773438 604.476562 708.292969 C 607.804688 707.808594 611.117188 708.648438 613.808594 710.65625 C 616.503906 712.671875 618.253906 715.605469 618.734375 718.933594 L 620.429688 730.628906 Z M 624.195312 731.871094 L 622.242188 718.421875 C 621.621094 714.160156 619.378906 710.394531 615.933594 707.816406 C 612.476562 705.242188 608.230469 704.164062 603.96875 704.785156 C 599.703125 705.402344 595.9375 707.644531 593.363281 711.09375 C 590.785156 714.550781 589.707031 718.796875 590.328125 723.058594 L 592.28125 736.503906 L 592.28125 736.507812 L 602.957031 810 L 606.535156 810 L 596.042969 737.75 L 620.941406 734.136719 L 631.957031 810 L 635.542969 810 L 624.195312 731.871094 " fill-opacity="1" fill-rule="nonzero"/><path fill="#e74632" d="M 628.753906 436.257812 C 627.183594 436.308594 625.566406 436.453125 623.9375 436.691406 C 622.28125 436.929688 620.671875 437.257812 619.125 437.664062 L 611.160156 426.984375 L 614.820312 424.460938 L 621.601562 426.667969 C 622.128906 426.839844 622.699219 426.757812 623.152344 426.445312 L 629.023438 422.398438 L 633.265625 423.78125 Z M 637.855469 420.925781 C 637.855469 420.925781 637.855469 420.917969 637.851562 420.910156 L 637.851562 420.894531 L 635.542969 405 L 631.957031 405 L 634.1875 420.355469 L 629.289062 418.761719 C 628.765625 418.589844 628.1875 418.667969 627.738281 418.984375 L 621.863281 423.027344 L 615.085938 420.824219 C 614.5625 420.652344 613.988281 420.734375 613.535156 421.046875 L 609.289062 423.96875 L 606.535156 405 L 602.957031 405 L 605.9375 425.542969 C 605.945312 425.601562 605.957031 425.664062 605.972656 425.71875 C 605.976562 425.734375 605.980469 425.742188 605.980469 425.757812 C 605.992188 425.800781 606.007812 425.84375 606.023438 425.890625 C 606.035156 425.917969 606.046875 425.945312 606.058594 425.972656 C 606.066406 426 606.074219 426.023438 606.089844 426.046875 C 606.109375 426.089844 606.132812 426.140625 606.164062 426.183594 C 606.164062 426.191406 606.167969 426.191406 606.167969 426.203125 C 606.203125 426.253906 606.234375 426.308594 606.277344 426.359375 L 617.007812 440.753906 L 624.394531 450.664062 C 624.496094 450.804688 624.621094 450.921875 624.753906 451.027344 C 625.125 451.304688 625.601562 451.429688 626.074219 451.359375 C 626.71875 451.261719 627.257812 450.820312 627.484375 450.207031 L 631.675781 438.605469 L 637.757812 421.785156 C 637.757812 421.777344 637.761719 421.777344 637.761719 421.777344 L 637.761719 421.769531 C 637.765625 421.761719 637.765625 421.757812 637.769531 421.75 C 637.785156 421.703125 637.800781 421.652344 637.816406 421.601562 C 637.816406 421.585938 637.824219 421.5625 637.824219 421.546875 C 637.832031 421.507812 637.84375 421.472656 637.851562 421.429688 C 637.855469 421.402344 637.855469 421.375 637.859375 421.34375 C 637.863281 421.316406 637.867188 421.289062 637.867188 421.261719 C 637.867188 421.21875 637.867188 421.179688 637.867188 421.140625 L 637.867188 421.085938 C 637.867188 421.027344 637.859375 420.976562 637.855469 420.925781 " fill-opacity="1" fill-rule="nonzero"/><path fill="#84c3ca" d="M 683.238281 640.855469 C 682.960938 642.503906 682.78125 644.144531 682.695312 645.742188 L 670.09375 650.058594 L 668.808594 645.804688 L 672.980469 640.023438 C 673.304688 639.574219 673.398438 639 673.238281 638.476562 L 671.1875 631.648438 L 673.789062 628.03125 L 684.296875 636.132812 C 683.867188 637.652344 683.511719 639.230469 683.238281 640.855469 Z M 665.425781 644.441406 C 665.101562 644.890625 665.003906 645.460938 665.164062 645.988281 L 666.652344 650.921875 L 575.742188 635.691406 L 579.902344 610.878906 L 670.808594 626.109375 L 667.796875 630.285156 C 667.472656 630.734375 667.378906 631.304688 667.542969 631.832031 L 669.59375 638.660156 Z M 572.25 635.105469 L 560.59375 633.152344 C 557.28125 632.597656 554.386719 630.78125 552.429688 628.050781 C 550.480469 625.3125 549.714844 621.980469 550.265625 618.664062 C 550.820312 615.347656 552.636719 612.453125 555.367188 610.507812 C 558.105469 608.550781 561.4375 607.785156 564.75 608.339844 L 576.410156 610.289062 Z M 697.195312 641.609375 L 687.425781 634.078125 L 687.425781 634.070312 L 673.261719 623.144531 C 673.261719 623.140625 673.253906 623.140625 673.253906 623.136719 C 673.246094 623.132812 673.238281 623.128906 673.238281 623.125 C 673.195312 623.09375 673.152344 623.0625 673.105469 623.035156 C 673.089844 623.027344 673.078125 623.019531 673.0625 623.007812 C 673.023438 622.992188 672.992188 622.96875 672.957031 622.949219 C 672.929688 622.9375 672.898438 622.925781 672.875 622.914062 C 672.851562 622.90625 672.820312 622.894531 672.796875 622.882812 C 672.761719 622.871094 672.722656 622.859375 672.683594 622.839844 C 672.667969 622.839844 672.648438 622.832031 672.632812 622.828125 C 672.578125 622.816406 672.527344 622.800781 672.480469 622.792969 C 672.472656 622.792969 672.464844 622.789062 672.460938 622.789062 L 672.457031 622.789062 C 672.453125 622.789062 672.449219 622.789062 672.445312 622.789062 L 578.742188 607.085938 L 565.339844 604.84375 C 561.089844 604.128906 556.816406 605.117188 553.316406 607.613281 C 549.808594 610.117188 547.484375 613.835938 546.769531 618.078125 C 546.058594 622.332031 547.046875 626.601562 549.542969 630.105469 C 552.046875 633.613281 555.761719 635.933594 560.007812 636.648438 L 573.410156 638.894531 C 573.414062 638.894531 573.414062 638.894531 573.414062 638.894531 L 667.125 654.59375 C 667.1875 654.605469 667.246094 654.609375 667.308594 654.617188 L 667.347656 654.617188 C 667.390625 654.621094 667.433594 654.621094 667.484375 654.621094 C 667.511719 654.617188 667.546875 654.613281 667.578125 654.609375 C 667.601562 654.609375 667.628906 654.609375 667.65625 654.605469 C 667.707031 654.597656 667.757812 654.589844 667.8125 654.578125 C 667.8125 654.578125 667.820312 654.578125 667.824219 654.574219 C 667.890625 654.5625 667.945312 654.539062 668.007812 654.519531 L 684.996094 648.695312 L 696.683594 644.6875 C 696.851562 644.628906 697 644.554688 697.136719 644.457031 C 697.519531 644.183594 697.785156 643.769531 697.859375 643.300781 C 697.964844 642.65625 697.710938 642.011719 697.195312 641.609375 " fill-opacity="1" fill-rule="nonzero"/><path fill="#ffb923" d="M 748.503906 502.601562 L 744.539062 500.597656 L 743.226562 493.589844 C 743.125 493.046875 742.777344 492.582031 742.285156 492.335938 L 735.921875 489.117188 L 735.097656 484.734375 L 748.214844 482.710938 C 749.015625 484.070312 749.917969 485.417969 750.902344 486.738281 C 751.90625 488.074219 752.96875 489.328125 754.066406 490.492188 Z M 673.050781 561.027344 L 657.941406 540.910156 L 731.652344 485.566406 L 732.601562 490.628906 C 732.707031 491.171875 733.050781 491.636719 733.542969 491.886719 L 739.902344 495.105469 L 741.21875 502.105469 C 741.320312 502.648438 741.667969 503.109375 742.15625 503.363281 L 746.761719 505.6875 Z M 660.761719 570.253906 C 658.074219 572.273438 654.761719 573.125 651.433594 572.648438 C 648.109375 572.175781 645.164062 570.433594 643.148438 567.746094 C 641.128906 565.058594 640.28125 561.746094 640.753906 558.421875 C 641.230469 555.09375 642.96875 552.148438 645.65625 550.132812 L 655.109375 543.035156 L 670.214844 563.15625 Z M 762.757812 477.828125 C 762.363281 477.308594 761.714844 477.046875 761.066406 477.148438 L 748.875 479.027344 L 731.195312 481.746094 C 731.195312 481.746094 731.191406 481.753906 731.183594 481.753906 L 731.179688 481.753906 C 731.175781 481.753906 731.171875 481.753906 731.167969 481.753906 C 731.109375 481.761719 731.0625 481.769531 731.007812 481.785156 C 730.992188 481.792969 730.976562 481.796875 730.960938 481.800781 C 730.917969 481.8125 730.882812 481.820312 730.84375 481.835938 C 730.816406 481.847656 730.789062 481.863281 730.761719 481.871094 C 730.738281 481.878906 730.707031 481.890625 730.683594 481.902344 C 730.648438 481.921875 730.613281 481.941406 730.578125 481.957031 C 730.5625 481.96875 730.546875 481.976562 730.53125 481.988281 C 730.488281 482.015625 730.441406 482.042969 730.402344 482.074219 C 730.398438 482.078125 730.394531 482.078125 730.386719 482.082031 L 730.386719 482.085938 C 730.386719 482.09375 730.375 482.09375 730.375 482.09375 L 654.394531 539.136719 C 654.394531 539.140625 654.394531 539.140625 654.394531 539.140625 L 643.523438 547.296875 C 640.082031 549.882812 637.855469 553.65625 637.246094 557.917969 C 636.640625 562.183594 637.730469 566.429688 640.3125 569.871094 C 642.902344 573.320312 646.671875 575.550781 650.9375 576.15625 C 655.203125 576.765625 659.445312 575.675781 662.886719 573.085938 L 673.757812 564.925781 L 749.742188 507.878906 C 749.792969 507.839844 749.839844 507.800781 749.886719 507.757812 C 749.894531 507.753906 749.90625 507.742188 749.914062 507.730469 C 749.941406 507.699219 749.980469 507.671875 750.007812 507.636719 C 750.027344 507.609375 750.046875 507.585938 750.066406 507.5625 C 750.082031 507.542969 750.101562 507.523438 750.117188 507.5 C 750.144531 507.457031 750.175781 507.414062 750.203125 507.371094 C 750.207031 507.363281 750.210938 507.363281 750.214844 507.355469 C 750.242188 507.300781 750.273438 507.242188 750.300781 507.191406 L 757.792969 490.867188 L 762.949219 479.632812 C 763.023438 479.480469 763.070312 479.3125 763.09375 479.148438 C 763.164062 478.691406 763.039062 478.210938 762.757812 477.828125 " fill-opacity="1" fill-rule="nonzero"/><path fill="#e74632" d="M 565.316406 529.980469 C 564.601562 533.261719 562.660156 536.074219 559.832031 537.890625 L 549.894531 544.292969 L 536.273438 523.136719 L 546.210938 516.738281 C 549.035156 514.921875 552.398438 514.308594 555.683594 515.019531 C 558.96875 515.734375 561.78125 517.679688 563.597656 520.503906 C 565.417969 523.332031 566.027344 526.695312 565.316406 529.980469 Z M 469.414062 596.109375 L 468.832031 590.988281 C 468.765625 590.441406 468.457031 589.957031 467.984375 589.671875 L 461.871094 586.003906 L 461.0625 578.921875 C 461 578.371094 460.6875 577.886719 460.214844 577.601562 L 455.796875 574.953125 L 533.296875 525.054688 L 546.917969 546.207031 Z M 452.6875 597.765625 C 451.988281 596.355469 451.191406 594.945312 450.300781 593.558594 C 449.390625 592.15625 448.421875 590.820312 447.410156 589.582031 L 453.828125 577.90625 L 457.640625 580.195312 L 458.449219 587.273438 C 458.507812 587.824219 458.824219 588.3125 459.292969 588.59375 L 465.410156 592.261719 L 465.917969 596.695312 Z M 566.574219 518.585938 C 564.246094 514.964844 560.644531 512.46875 556.433594 511.554688 C 552.226562 510.644531 547.914062 511.425781 544.292969 513.757812 L 532.863281 521.117188 L 452.972656 572.554688 C 452.917969 572.589844 452.871094 572.621094 452.820312 572.664062 C 452.8125 572.671875 452.804688 572.679688 452.796875 572.691406 C 452.757812 572.71875 452.726562 572.742188 452.695312 572.777344 C 452.667969 572.800781 452.648438 572.824219 452.628906 572.847656 C 452.609375 572.863281 452.59375 572.886719 452.574219 572.902344 C 452.539062 572.945312 452.511719 572.988281 452.476562 573.027344 C 452.472656 573.035156 452.472656 573.039062 452.46875 573.042969 C 452.433594 573.09375 452.402344 573.148438 452.371094 573.203125 L 443.722656 588.941406 L 437.773438 599.773438 C 437.6875 599.925781 437.625 600.085938 437.59375 600.25 C 437.492188 600.703125 437.578125 601.191406 437.835938 601.589844 C 438.1875 602.136719 438.816406 602.445312 439.464844 602.394531 L 451.765625 601.398438 L 469.59375 599.949219 C 469.597656 599.949219 469.605469 599.949219 469.605469 599.949219 L 469.628906 599.949219 C 469.679688 599.941406 469.730469 599.933594 469.785156 599.925781 C 469.804688 599.921875 469.820312 599.917969 469.835938 599.914062 C 469.871094 599.90625 469.914062 599.898438 469.953125 599.886719 C 469.980469 599.878906 470.007812 599.871094 470.035156 599.863281 C 470.0625 599.855469 470.089844 599.839844 470.117188 599.832031 C 470.152344 599.816406 470.1875 599.796875 470.226562 599.785156 C 470.242188 599.773438 470.257812 599.769531 470.273438 599.761719 C 470.320312 599.734375 470.367188 599.707031 470.414062 599.679688 C 470.414062 599.675781 470.421875 599.675781 470.429688 599.675781 L 470.429688 599.671875 C 470.429688 599.667969 470.4375 599.667969 470.4375 599.664062 L 550.320312 548.226562 L 561.746094 540.871094 C 565.371094 538.539062 567.867188 534.941406 568.777344 530.730469 C 569.691406 526.519531 568.90625 522.207031 566.574219 518.585938 " fill-opacity="1" fill-rule="nonzero"/><path fill="#4f68a6" d="M 779.132812 684.121094 L 779.667969 691.234375 C 779.710938 691.78125 780 692.28125 780.464844 692.582031 L 786.433594 696.484375 L 786.765625 700.929688 L 773.507812 701.492188 C 772.863281 700.050781 772.117188 698.613281 771.28125 697.195312 C 770.425781 695.757812 769.515625 694.386719 768.550781 693.109375 L 775.417969 681.6875 Z M 810 655.511719 L 774.769531 676.308594 C 774.714844 676.34375 774.664062 676.375 774.613281 676.410156 C 774.605469 676.417969 774.59375 676.425781 774.582031 676.433594 C 774.550781 676.464844 774.511719 676.492188 774.476562 676.519531 C 774.457031 676.542969 774.433594 676.566406 774.414062 676.585938 L 774.355469 676.640625 C 774.320312 676.683594 774.289062 676.722656 774.257812 676.761719 C 774.253906 676.769531 774.246094 676.769531 774.242188 676.777344 C 774.207031 676.828125 774.171875 676.878906 774.136719 676.9375 L 764.890625 692.328125 L 758.519531 702.917969 C 758.433594 703.066406 758.371094 703.226562 758.324219 703.386719 C 758.210938 703.839844 758.273438 704.328125 758.515625 704.738281 C 758.851562 705.300781 759.464844 705.628906 760.117188 705.597656 L 772.445312 705.085938 L 772.445312 705.082031 L 790.316406 704.328125 L 790.351562 704.328125 C 790.402344 704.324219 790.453125 704.320312 790.507812 704.3125 C 790.523438 704.308594 790.539062 704.304688 790.558594 704.304688 C 790.597656 704.296875 790.636719 704.289062 790.675781 704.277344 C 790.703125 704.273438 790.730469 704.261719 790.757812 704.253906 C 790.785156 704.246094 790.8125 704.238281 790.839844 704.230469 C 790.875 704.21875 790.914062 704.203125 790.953125 704.1875 C 790.96875 704.179688 790.984375 704.171875 791 704.164062 C 791.050781 704.140625 791.09375 704.117188 791.144531 704.085938 C 791.148438 704.085938 791.152344 704.085938 791.160156 704.085938 L 791.160156 704.078125 C 791.164062 704.078125 791.167969 704.078125 791.171875 704.070312 L 810 692.960938 L 810 688.84375 L 790.285156 700.480469 L 789.898438 695.34375 C 789.859375 694.796875 789.566406 694.296875 789.101562 693.992188 L 783.136719 690.097656 L 782.601562 682.984375 C 782.5625 682.433594 782.269531 681.933594 781.804688 681.636719 L 777.492188 678.816406 L 810 659.628906 L 810 655.511719 " fill-opacity="1" fill-rule="nonzero"/><path fill="#84c3ca" d="M 807.335938 799.941406 C 807.335938 799.941406 807.335938 799.941406 807.332031 799.941406 L 797.71875 790.332031 C 794.679688 787.285156 790.628906 785.613281 786.320312 785.613281 C 782.015625 785.613281 777.964844 787.285156 774.917969 790.332031 C 771.875 793.378906 770.195312 797.429688 770.195312 801.734375 C 770.195312 804.691406 770.992188 807.527344 772.46875 810 L 776.839844 810 C 774.835938 807.710938 773.738281 804.808594 773.738281 801.734375 C 773.738281 798.371094 775.046875 795.210938 777.425781 792.839844 C 779.804688 790.464844 782.960938 789.15625 786.320312 789.15625 C 789.679688 789.15625 792.839844 790.464844 795.21875 792.839844 L 803.570312 801.195312 L 794.769531 810 L 799.78125 810 L 806.078125 803.703125 L 810 807.617188 L 810 802.609375 L 807.335938 799.941406 " fill-opacity="1" fill-rule="nonzero"/></g></g></g></svg>